<svg version="1.0" xmlns="http://www.w3.org/2000/svg"
 width="710.000000pt" height="148.000000pt" viewBox="0 0 710.000000 148.000000"
 preserveAspectRatio="xMidYMid meet">

<g transform="translate(0.000000,148.000000) scale(0.100000,-0.100000)"
fill="#000000" stroke="none">
<path d="M3439 1214 c-27 -20 -41 -24 -69 -19 -19 4 -55 7 -80 8 -41 2 -46 -1
-61 -30 -27 -55 -39 -63 -86 -63 -61 0 -93 -32 -93 -93 0 -47 -12 -63 -62 -85
-34 -14 -46 -55 -28 -96 19 -44 16 -80 -9 -111 -33 -43 -27 -78 20 -125 37
-36 40 -43 33 -73 -18 -74 -3 -104 57 -113 45 -8 61 -24 77 -80 15 -51 49 -69
101 -54 39 11 55 4 99 -40 37 -37 71 -38 110 -5 35 29 55 31 107 9 49 -20 77
-8 104 44 23 44 36 52 90 52 51 0 74 27 81 93 5 48 8 53 47 75 52 29 62 59 40
119 -18 48 -15 64 20 107 31 38 24 71 -24 112 -35 30 -36 31 -29 83 9 69 -8
96 -63 106 -47 8 -57 18 -74 76 -16 54 -50 75 -93 59 -39 -15 -64 -7 -107 35
-43 42 -62 43 -108 9z m56 -175 c76 -14 121 -37 172 -88 67 -68 88 -121 88
-226 0 -75 -4 -98 -24 -139 -95 -194 -346 -241 -505 -95 -74 67 -100 129 -100
234 0 102 26 166 95 230 61 57 93 71 210 94 3 1 32 -4 64 -10z"/>
<path d="M3420 947 c0 -17 -10 -28 -35 -40 -66 -31 -83 -118 -32 -164 12 -12
46 -33 75 -47 49 -25 53 -29 50 -59 -2 -27 -8 -33 -31 -35 -22 -3 -31 3 -45
28 -15 26 -22 30 -52 28 -27 -2 -36 -8 -38 -24 -4 -27 34 -73 75 -90 25 -11
33 -20 33 -39 0 -21 5 -25 30 -25 25 0 30 4 30 25 0 17 9 29 29 40 39 20 61
52 61 90 0 49 -21 76 -90 114 -51 29 -66 42 -68 63 -2 19 3 30 18 38 24 13 45
1 55 -31 5 -14 16 -19 46 -19 34 0 39 3 39 24 0 29 -35 74 -66 86 -17 7 -24
17 -24 35 0 21 -5 25 -30 25 -25 0 -30 -4 -30 -23z"/>
<path d="M1710 745 l0 -325 60 0 60 0 0 56 c0 45 5 62 25 86 l25 29 55 -85 55
-86 65 0 c36 0 65 2 65 5 0 3 -35 60 -79 127 l-79 123 62 68 c33 37 72 81 85
98 l24 29 -74 0 -74 0 -75 -86 -75 -85 -3 186 -2 185 -60 0 -60 0 0 -325z"/>
<path d="M5720 745 l0 -325 55 0 55 0 0 58 c0 51 4 62 28 85 l28 27 55 -85 54
-85 68 0 c52 0 66 3 61 13 -5 6 -41 63 -82 125 -84 131 -87 107 27 231 l73 81
-73 0 -74 0 -82 -87 -82 -88 -1 188 0 187 -55 0 -55 0 0 -325z"/>
<path d="M180 735 l0 -315 60 0 60 0 2 179 3 180 69 -120 68 -119 42 0 41 0
70 123 70 122 3 -182 2 -183 60 0 60 0 0 315 0 315 -54 0 -55 0 -97 -171 c-87
-152 -99 -169 -111 -154 -7 10 -52 87 -100 172 l-87 153 -53 0 -53 0 0 -315z"/>
<path d="M4000 990 l0 -60 85 0 85 0 0 -255 0 -255 60 0 60 0 0 255 0 255 85
0 85 0 0 60 0 60 -230 0 -230 0 0 -60z"/>
<path d="M2665 991 l-50 -18 0 -189 c0 -175 2 -192 22 -229 42 -78 123 -135
193 -135 30 0 30 1 30 53 l0 53 -42 14 c-63 22 -88 65 -88 151 l0 69 65 0 65
0 0 55 0 55 -65 0 -65 0 0 70 c0 39 -3 70 -7 69 -5 0 -30 -8 -58 -18z"/>
<path d="M1603 870 c-56 -13 -123 -60 -153 -107 -37 -58 -50 -121 -50 -243 l0
-100 60 0 60 0 0 118 c0 99 3 122 20 150 21 35 74 72 103 72 14 0 17 10 17 60
0 64 0 64 -57 50z"/>
<path d="M4650 865 c-62 -19 -128 -78 -156 -139 -21 -45 -24 -66 -24 -178 l0
-128 54 0 54 0 4 118 c3 85 8 126 21 149 19 35 73 73 106 73 19 0 21 5 21 60
0 68 -2 69 -80 45z"/>
<path d="M6805 871 c-78 -19 -161 -96 -183 -169 -7 -22 -12 -94 -12 -161 l0
-121 55 0 55 0 0 99 c0 54 3 113 6 131 9 42 63 98 103 106 31 6 31 7 31 65 0
63 0 63 -55 50z"/>
<path d="M1005 851 c-171 -78 -181 -317 -16 -403 57 -30 135 -37 185 -18 17 6
26 6 26 0 0 -6 27 -10 60 -10 l60 0 0 225 0 225 -59 0 c-33 0 -61 -5 -63 -11
-2 -7 -12 -7 -31 0 -43 16 -117 13 -162 -8z m153 -118 c29 -18 55 -78 48 -109
-18 -69 -97 -109 -156 -79 -88 45 -81 170 11 202 37 13 61 9 97 -14z"/>
<path d="M2249 856 c-129 -46 -186 -190 -124 -312 54 -105 163 -147 277 -108
25 8 54 24 64 35 17 19 17 21 -18 56 l-36 36 -41 -16 c-48 -20 -90 -14 -123
17 l-23 21 164 3 164 3 -6 59 c-11 101 -52 161 -137 199 -51 23 -109 26 -161
7z m114 -109 c18 -8 38 -21 46 -30 12 -16 6 -17 -82 -17 -77 0 -95 3 -91 14 5
12 31 28 64 39 24 8 29 8 63 -6z"/>
<path d="M4875 851 c-123 -56 -169 -190 -107 -312 36 -71 98 -111 182 -117 33
-2 73 0 89 6 19 7 31 7 31 1 0 -5 27 -9 60 -9 l60 0 0 225 0 225 -59 0 c-33 0
-61 -5 -63 -11 -2 -7 -12 -7 -31 0 -43 17 -117 13 -162 -8z m153 -118 c81 -51
49 -181 -48 -198 -73 -12 -143 69 -120 140 25 75 101 101 168 58z"/>
<path d="M5385 851 c-46 -21 -89 -62 -113 -106 -23 -43 -22 -159 2 -204 56
-105 187 -150 296 -100 44 20 90 55 90 70 0 3 -21 20 -47 37 -47 30 -48 31
-68 13 -30 -28 -78 -35 -114 -17 -42 22 -61 54 -61 104 0 89 97 135 172 82
l26 -19 44 31 c23 17 45 32 47 34 9 8 -35 45 -82 69 -62 30 -134 33 -192 6z"/>
<path d="M6240 850 c-91 -43 -134 -109 -134 -205 0 -118 77 -205 198 -221 48
-7 125 14 164 44 l22 17 -39 39 -40 39 -37 -18 c-30 -14 -43 -15 -74 -6 -20 6
-45 20 -55 31 -18 20 -18 20 143 20 l162 0 0 53 c-1 85 -48 165 -120 202 -53
28 -137 30 -190 5z m152 -114 c10 -6 20 -16 22 -23 4 -10 -17 -13 -91 -13 -88
0 -94 1 -82 17 34 40 104 49 151 19z"/>
</g>
</svg>
