<svg id="svg" xmlns="http://www.w3.org/2000/svg" xmlns:xlink="http://www.w3.org/1999/xlink" width="400" height="83.38028169014085" viewBox="0, 0, 400,83.38028169014085" version="1.1"><g id="svgg"><path id="path0" d="M96.500 41.417 L 96.500 59.500 99.654 59.500 L 102.808 59.500 102.862 56.254 L 102.917 53.008 103.458 52.513 C 103.756 52.241,104.000 51.981,104.000 51.936 C 104.000 51.726,105.645 50.167,105.866 50.167 C 106.144 50.167,106.667 50.680,106.667 50.954 C 106.667 51.051,106.779 51.174,106.917 51.227 C 107.054 51.280,107.167 51.432,107.167 51.566 C 107.167 51.700,107.260 51.911,107.375 52.034 C 107.832 52.527,108.333 53.334,108.333 53.577 C 108.333 53.718,108.406 53.833,108.496 53.833 C 108.585 53.833,108.775 54.040,108.917 54.292 C 109.060 54.544,109.306 54.950,109.463 55.194 C 109.621 55.438,109.970 56.000,110.239 56.444 C 110.508 56.887,110.827 57.349,110.947 57.470 C 111.068 57.591,111.167 57.763,111.167 57.852 C 111.167 57.941,111.410 58.345,111.708 58.751 L 112.250 59.487 115.792 59.493 C 117.740 59.497,119.333 59.435,119.333 59.356 C 119.333 59.277,119.202 59.032,119.042 58.812 C 118.611 58.223,118.352 57.796,118.170 57.375 C 118.081 57.169,117.948 57.000,117.874 57.000 C 117.800 57.000,117.651 56.794,117.543 56.542 C 117.276 55.921,116.959 55.444,116.708 55.283 C 116.594 55.210,116.500 55.047,116.500 54.920 C 116.500 54.794,116.406 54.589,116.292 54.466 C 115.984 54.134,115.333 53.195,115.333 53.083 C 115.333 52.971,114.682 52.033,114.375 51.701 C 114.260 51.577,114.167 51.402,114.167 51.311 C 114.167 51.221,113.904 50.803,113.583 50.383 C 113.263 49.963,113.000 49.517,113.000 49.393 C 113.000 49.268,112.923 49.167,112.829 49.167 C 112.735 49.167,112.582 48.998,112.489 48.792 C 112.296 48.365,112.113 48.059,111.418 47.000 C 110.285 45.274,110.285 45.286,111.246 44.234 C 111.657 43.784,111.994 43.360,111.996 43.292 C 111.998 43.223,112.112 43.167,112.250 43.167 C 112.388 43.167,112.500 43.071,112.500 42.954 C 112.500 42.837,112.706 42.555,112.958 42.327 C 113.210 42.100,113.784 41.477,114.233 40.943 C 114.683 40.408,115.376 39.631,115.775 39.215 C 116.174 38.799,116.500 38.431,116.500 38.397 C 116.500 38.363,116.856 37.967,117.292 37.517 C 118.326 36.448,119.833 34.715,119.833 34.594 C 119.833 34.543,118.082 34.500,115.941 34.500 L 112.050 34.500 111.316 35.300 C 110.913 35.740,110.208 36.537,109.750 37.071 C 109.292 37.605,108.523 38.464,108.043 38.979 C 107.562 39.495,107.169 39.973,107.168 40.042 C 107.167 40.110,107.054 40.167,106.917 40.167 C 106.779 40.167,106.667 40.262,106.667 40.380 C 106.667 40.497,106.535 40.707,106.375 40.846 C 106.215 40.985,105.708 41.540,105.250 42.079 C 102.668 45.113,102.833 45.728,102.833 33.063 L 102.833 23.333 99.667 23.333 L 96.500 23.333 96.500 41.417 M322.333 41.417 L 322.333 59.500 325.333 59.500 L 328.333 59.500 328.333 56.623 C 328.333 53.207,328.346 53.170,330.260 51.213 L 331.520 49.923 332.004 50.477 C 332.270 50.781,332.533 51.174,332.588 51.349 C 332.644 51.524,332.752 51.667,332.828 51.667 C 332.905 51.667,333.049 51.873,333.148 52.125 C 333.362 52.668,333.642 53.107,334.042 53.527 C 334.202 53.696,334.333 53.946,334.333 54.083 C 334.333 54.221,334.410 54.333,334.504 54.333 C 334.598 54.333,334.749 54.502,334.839 54.708 C 334.930 54.915,335.302 55.533,335.667 56.083 C 336.032 56.633,336.383 57.196,336.447 57.333 C 336.511 57.471,336.811 57.939,337.115 58.373 C 337.418 58.808,337.667 59.239,337.667 59.332 C 337.667 59.440,339.003 59.500,341.418 59.500 L 345.169 59.500 344.585 58.668 C 344.263 58.211,344.000 57.761,344.000 57.668 C 344.000 57.576,343.926 57.500,343.837 57.500 C 343.747 57.500,343.626 57.312,343.568 57.081 C 343.510 56.851,343.377 56.607,343.273 56.540 C 343.064 56.404,342.772 55.971,342.461 55.333 C 342.349 55.104,342.162 54.857,342.045 54.783 C 341.929 54.710,341.833 54.578,341.833 54.490 C 341.833 54.402,341.571 53.956,341.250 53.500 C 340.929 53.044,340.667 52.629,340.667 52.578 C 340.667 52.470,340.009 51.525,339.708 51.201 C 339.594 51.077,339.500 50.902,339.500 50.811 C 339.500 50.721,339.237 50.303,338.917 49.883 C 338.596 49.463,338.333 49.025,338.333 48.911 C 338.333 48.796,338.221 48.659,338.083 48.606 C 337.946 48.554,337.833 48.440,337.833 48.353 C 337.833 48.196,336.903 46.705,336.422 46.091 C 335.897 45.421,337.066 43.693,339.947 40.881 C 340.343 40.495,340.667 40.136,340.667 40.084 C 340.667 40.032,340.873 39.783,341.125 39.531 C 341.377 39.279,342.029 38.550,342.574 37.911 C 343.118 37.273,343.812 36.506,344.115 36.209 C 344.419 35.911,344.667 35.592,344.667 35.500 C 344.667 35.408,344.760 35.333,344.875 35.332 C 344.990 35.331,345.170 35.144,345.276 34.915 L 345.469 34.500 341.602 34.500 L 337.734 34.500 336.576 35.769 C 335.938 36.467,335.154 37.321,334.833 37.666 C 334.512 38.012,333.875 38.728,333.417 39.259 C 331.162 41.868,329.537 43.561,329.040 43.818 C 328.365 44.168,328.333 43.698,328.333 33.239 L 328.333 23.333 325.333 23.333 L 322.333 23.333 322.333 41.417 M10.375 24.444 C 10.210 24.510,10.167 28.181,10.167 42.014 L 10.167 59.500 13.417 59.500 L 16.667 59.500 16.667 49.699 C 16.667 39.304,16.695 38.901,17.399 39.485 C 17.546 39.607,17.667 39.848,17.667 40.020 C 17.667 40.193,17.741 40.333,17.831 40.333 C 17.922 40.333,18.107 40.577,18.243 40.875 C 18.379 41.173,18.755 41.867,19.078 42.417 C 19.401 42.967,19.758 43.604,19.871 43.833 C 19.984 44.063,20.130 44.289,20.195 44.337 C 20.259 44.384,20.393 44.609,20.492 44.837 C 20.591 45.064,20.820 45.475,21.001 45.750 C 21.182 46.025,21.423 46.438,21.538 46.667 C 21.652 46.896,21.841 47.182,21.956 47.304 C 22.072 47.425,22.167 47.668,22.167 47.845 C 22.167 48.022,22.244 48.167,22.337 48.167 C 22.431 48.167,22.584 48.366,22.677 48.609 C 22.769 48.853,23.067 49.382,23.339 49.784 C 23.611 50.187,23.833 50.628,23.833 50.764 C 23.833 50.899,23.941 51.052,24.073 51.102 C 24.205 51.153,24.361 51.413,24.420 51.681 C 24.478 51.948,24.590 52.167,24.669 52.167 C 24.747 52.167,24.858 52.317,24.917 52.500 C 25.115 53.123,29.667 52.957,29.667 52.326 C 29.667 52.160,29.761 51.925,29.877 51.804 C 29.993 51.682,30.181 51.396,30.295 51.167 C 30.410 50.938,30.652 50.525,30.833 50.250 C 31.014 49.975,31.243 49.564,31.341 49.337 C 31.440 49.109,31.574 48.884,31.639 48.837 C 31.704 48.789,31.850 48.563,31.964 48.333 C 32.078 48.104,32.345 47.617,32.559 47.250 C 32.772 46.883,33.149 46.211,33.396 45.756 C 33.642 45.302,33.898 44.889,33.964 44.840 C 34.109 44.731,34.499 44.047,35.086 42.875 C 35.327 42.394,35.594 42.000,35.679 42.000 C 35.764 42.000,35.833 41.862,35.833 41.692 C 35.833 41.523,35.983 41.249,36.167 41.083 C 36.350 40.917,36.502 40.662,36.505 40.516 C 36.513 40.110,37.308 39.288,37.588 39.395 C 37.796 39.475,37.837 40.901,37.874 49.453 L 37.917 59.417 41.126 59.462 L 44.335 59.507 44.292 41.962 L 44.250 24.417 41.488 24.371 C 38.281 24.318,38.255 24.332,37.327 26.542 C 37.221 26.794,37.075 27.000,37.002 27.000 C 36.929 27.000,36.822 27.188,36.765 27.417 C 36.707 27.646,36.593 27.833,36.510 27.833 C 36.427 27.833,36.312 28.052,36.253 28.319 C 36.194 28.587,36.038 28.847,35.906 28.898 C 35.775 28.948,35.667 29.137,35.667 29.318 C 35.667 29.499,35.591 29.694,35.497 29.752 C 35.404 29.809,35.214 30.095,35.075 30.386 C 34.593 31.394,34.315 31.833,34.158 31.833 C 34.071 31.833,34.000 31.978,34.000 32.155 C 34.000 32.332,33.905 32.575,33.790 32.696 C 33.674 32.818,33.486 33.104,33.373 33.333 C 33.259 33.563,32.901 34.200,32.578 34.750 C 32.255 35.300,31.879 35.994,31.743 36.292 C 31.607 36.590,31.422 36.833,31.331 36.833 C 31.241 36.833,31.167 36.978,31.167 37.155 C 31.167 37.332,31.072 37.575,30.956 37.696 C 30.841 37.818,30.652 38.104,30.538 38.333 C 30.423 38.563,30.181 38.975,29.999 39.250 C 29.817 39.525,29.585 39.956,29.484 40.208 C 29.383 40.460,29.239 40.667,29.164 40.667 C 29.088 40.667,28.976 40.897,28.914 41.178 C 28.852 41.459,28.696 41.730,28.568 41.779 C 28.439 41.829,28.333 41.968,28.333 42.090 C 28.333 42.458,27.600 43.486,27.333 43.490 C 27.070 43.494,26.333 42.807,26.333 42.556 C 26.333 42.475,26.071 42.010,25.750 41.523 C 25.429 41.036,25.167 40.540,25.167 40.420 C 25.167 40.300,25.061 40.162,24.932 40.112 C 24.804 40.063,24.648 39.792,24.586 39.511 C 24.524 39.230,24.412 39.000,24.336 39.000 C 24.261 39.000,24.117 38.794,24.016 38.542 C 23.915 38.290,23.684 37.858,23.502 37.583 C 23.320 37.308,23.095 36.909,23.002 36.696 C 22.908 36.483,22.720 36.196,22.583 36.059 C 22.446 35.922,22.333 35.665,22.333 35.488 C 22.333 35.311,22.259 35.167,22.169 35.167 C 22.078 35.167,21.893 34.923,21.757 34.625 C 21.621 34.327,21.245 33.633,20.921 33.083 C 20.597 32.533,20.250 31.877,20.149 31.625 C 20.049 31.373,19.907 31.167,19.833 31.167 C 19.760 31.167,19.617 30.960,19.516 30.708 C 19.415 30.456,19.185 30.025,19.005 29.750 C 18.825 29.475,18.564 29.025,18.425 28.750 C 18.287 28.475,18.097 28.119,18.003 27.958 C 17.587 27.244,17.489 27.060,17.332 26.696 C 17.240 26.483,17.053 26.196,16.916 26.059 C 16.779 25.922,16.667 25.702,16.667 25.571 C 16.667 25.440,16.593 25.333,16.503 25.333 C 16.413 25.333,16.295 25.154,16.240 24.935 C 16.170 24.659,15.984 24.505,15.632 24.435 C 15.032 24.315,10.676 24.322,10.375 24.444 M225.538 24.473 C 225.376 24.576,225.336 25.334,225.371 27.679 L 225.417 30.750 230.167 30.833 L 234.917 30.917 234.959 45.208 L 235.002 59.500 238.250 59.500 L 241.498 59.500 241.541 45.208 L 241.583 30.917 246.333 30.833 L 251.083 30.750 251.083 27.583 L 251.083 24.417 238.417 24.377 C 231.450 24.355,225.655 24.398,225.538 24.473 M152.593 26.922 C 152.415 27.057,152.031 27.167,151.739 27.167 C 151.446 27.167,151.119 27.273,151.011 27.404 C 150.903 27.534,150.500 27.693,150.115 27.758 C 149.731 27.822,149.269 27.978,149.088 28.104 C 148.907 28.230,148.518 28.333,148.222 28.333 C 147.137 28.333,147.167 28.054,147.167 38.292 C 147.167 46.131,147.204 47.601,147.418 48.112 C 147.556 48.443,147.716 49.115,147.774 49.605 C 147.832 50.096,147.981 50.582,148.106 50.686 C 148.231 50.789,148.333 51.003,148.333 51.161 C 148.333 51.319,148.520 51.778,148.748 52.182 C 148.976 52.586,149.256 53.104,149.369 53.333 C 149.483 53.563,149.672 53.810,149.788 53.883 C 149.905 53.957,150.001 54.107,150.002 54.217 C 150.006 54.651,153.393 57.683,154.125 57.908 C 154.331 57.971,154.500 58.084,154.500 58.159 C 154.500 58.235,154.762 58.345,155.083 58.406 C 155.404 58.466,155.667 58.583,155.667 58.667 C 155.667 58.750,155.948 58.863,156.292 58.917 C 156.635 58.971,157.142 59.122,157.417 59.252 C 157.911 59.486,160.396 59.660,160.582 59.474 C 160.709 59.347,160.837 54.204,160.721 53.901 C 160.671 53.772,160.508 53.666,160.357 53.666 C 160.207 53.665,159.883 53.560,159.639 53.433 C 159.394 53.305,158.892 53.150,158.523 53.087 C 158.154 53.025,157.764 52.867,157.656 52.737 C 157.548 52.607,157.337 52.498,157.188 52.496 C 156.583 52.488,154.167 49.755,154.167 49.079 C 154.167 48.938,154.053 48.648,153.913 48.435 C 153.702 48.113,153.668 47.419,153.705 44.233 L 153.750 40.417 157.292 40.372 L 160.833 40.327 160.833 37.515 C 160.833 34.147,161.283 34.500,156.986 34.500 L 153.667 34.500 153.667 30.583 L 153.667 26.667 153.292 26.672 C 153.085 26.675,152.771 26.787,152.593 26.922 M91.500 34.264 C 91.271 34.391,90.764 34.496,90.374 34.498 C 89.984 34.499,89.386 34.650,89.044 34.833 C 88.701 35.017,88.321 35.167,88.199 35.167 C 88.076 35.167,87.864 35.279,87.726 35.417 C 87.589 35.554,87.341 35.667,87.175 35.667 C 87.010 35.667,86.781 35.779,86.667 35.917 C 86.553 36.054,86.389 36.167,86.304 36.167 C 85.630 36.167,81.333 40.414,81.333 41.081 C 81.333 41.145,81.183 41.388,81.000 41.621 C 80.817 41.854,80.667 42.176,80.667 42.335 C 80.667 42.495,80.554 42.719,80.417 42.833 C 80.279 42.947,80.167 43.240,80.167 43.483 C 80.167 43.727,80.066 44.074,79.942 44.255 C 79.458 44.965,79.142 49.310,79.197 54.500 L 79.250 59.417 82.375 59.462 L 85.500 59.507 85.500 53.119 C 85.500 47.760,85.539 46.678,85.745 46.407 C 85.879 46.229,85.992 45.882,85.995 45.637 C 85.998 45.391,86.103 45.088,86.228 44.962 C 86.353 44.837,86.510 44.566,86.575 44.359 C 86.712 43.927,88.902 41.705,89.410 41.483 C 89.597 41.401,89.862 41.262,90.000 41.173 C 90.691 40.726,91.897 40.333,92.574 40.333 L 93.333 40.333 93.333 37.167 L 93.333 34.000 92.625 34.016 C 92.235 34.025,91.729 34.137,91.500 34.264 M264.167 34.264 C 263.938 34.391,263.408 34.496,262.990 34.498 C 262.572 34.499,262.085 34.610,261.907 34.745 C 261.729 34.879,261.470 34.992,261.331 34.995 C 261.192 34.998,260.799 35.150,260.456 35.333 C 260.114 35.517,259.730 35.667,259.602 35.667 C 259.474 35.667,259.326 35.779,259.273 35.917 C 259.220 36.054,259.074 36.167,258.948 36.167 C 258.822 36.167,258.583 36.317,258.417 36.500 C 258.251 36.683,258.059 36.833,257.991 36.833 C 257.756 36.833,255.333 39.037,255.333 39.251 C 255.333 39.303,255.127 39.553,254.875 39.808 C 254.382 40.306,253.953 40.974,253.654 41.708 C 253.551 41.960,253.400 42.167,253.317 42.167 C 253.234 42.167,253.167 42.337,253.167 42.546 C 253.167 42.755,253.057 43.083,252.922 43.275 C 252.787 43.467,252.626 43.953,252.564 44.354 C 252.502 44.755,252.349 45.231,252.225 45.412 C 252.045 45.675,252.000 47.112,252.000 52.620 L 252.000 59.500 254.994 59.500 L 257.988 59.500 258.051 53.625 C 258.121 47.019,258.496 44.333,259.348 44.333 C 259.432 44.333,259.500 44.219,259.500 44.080 C 259.500 43.770,261.439 41.806,262.102 41.445 C 263.680 40.586,264.411 40.333,265.317 40.333 L 266.167 40.333 266.167 37.167 L 266.167 34.000 265.375 34.016 C 264.940 34.025,264.396 34.137,264.167 34.264 M384.667 34.264 C 384.438 34.391,383.931 34.496,383.541 34.498 C 383.151 34.499,382.552 34.650,382.210 34.833 C 381.868 35.017,381.475 35.169,381.336 35.172 C 381.197 35.175,380.938 35.287,380.760 35.422 C 380.582 35.557,380.301 35.667,380.135 35.667 C 379.969 35.667,379.833 35.734,379.833 35.817 C 379.833 35.940,378.952 36.572,378.460 36.802 C 377.788 37.117,375.114 39.873,374.707 40.672 C 374.591 40.898,374.352 41.308,374.175 41.583 C 373.998 41.858,373.771 42.365,373.670 42.708 C 373.570 43.052,373.415 43.333,373.327 43.333 C 373.239 43.333,373.166 43.577,373.166 43.875 C 373.165 44.173,373.034 44.642,372.874 44.917 C 372.612 45.367,372.578 46.120,372.533 52.458 L 372.483 59.500 375.492 59.500 L 378.500 59.500 378.507 53.625 C 378.513 48.943,378.563 47.615,378.755 47.083 C 378.887 46.717,378.996 46.248,378.997 46.041 C 379.005 44.974,381.835 41.500,382.697 41.500 C 382.864 41.500,383.000 41.423,383.000 41.330 C 383.000 41.236,383.206 41.076,383.458 40.973 C 383.710 40.870,384.153 40.685,384.442 40.560 C 384.731 40.435,385.312 40.333,385.734 40.333 L 386.500 40.333 386.500 37.167 L 386.500 34.000 385.792 34.016 C 385.402 34.025,384.896 34.137,384.667 34.264 M58.745 34.726 C 58.565 34.851,58.143 35.003,57.808 35.064 C 57.474 35.125,57.108 35.286,56.996 35.421 C 56.884 35.556,56.622 35.667,56.414 35.667 C 56.206 35.667,55.992 35.779,55.940 35.917 C 55.887 36.054,55.703 36.167,55.531 36.167 C 55.239 36.167,55.051 36.292,54.031 37.164 C 53.819 37.345,53.444 37.613,53.198 37.760 C 52.623 38.101,50.705 40.557,50.408 41.333 C 50.355 41.471,50.205 41.808,50.073 42.083 C 49.942 42.358,49.786 42.846,49.727 43.167 C 49.668 43.487,49.517 43.953,49.393 44.200 C 49.077 44.828,49.078 49.243,49.394 49.849 C 49.518 50.087,49.674 50.570,49.740 50.924 C 49.807 51.277,49.967 51.718,50.097 51.904 C 50.227 52.089,50.333 52.365,50.333 52.517 C 50.333 52.668,50.446 52.886,50.583 53.000 C 50.721 53.114,50.833 53.345,50.833 53.512 C 50.833 53.680,50.929 53.877,51.046 53.950 C 51.162 54.023,51.383 54.280,51.535 54.520 C 51.948 55.170,53.320 56.517,54.125 57.064 C 54.515 57.329,54.833 57.610,54.833 57.689 C 54.833 57.769,54.968 57.833,55.133 57.833 C 55.298 57.833,55.505 57.904,55.592 57.991 C 55.950 58.349,57.383 59.000,57.810 59.000 C 58.063 59.000,58.415 59.110,58.593 59.245 C 59.058 59.597,64.497 59.609,65.141 59.260 C 65.384 59.128,65.865 58.975,66.208 58.919 C 66.552 58.864,66.833 58.747,66.833 58.659 C 66.833 58.212,67.679 58.518,67.775 59.000 L 67.875 59.500 71.021 59.500 L 74.167 59.500 74.167 47.000 L 74.167 34.500 71.011 34.500 L 67.855 34.500 67.803 34.942 C 67.722 35.613,67.285 35.805,66.627 35.457 C 66.328 35.298,65.821 35.119,65.500 35.060 C 65.179 35.001,64.714 34.851,64.467 34.726 C 63.831 34.407,59.209 34.407,58.745 34.726 M128.500 34.734 C 128.271 34.855,127.755 35.004,127.354 35.066 C 126.953 35.127,126.467 35.287,126.275 35.422 C 126.083 35.557,125.802 35.667,125.650 35.667 C 125.498 35.667,125.281 35.779,125.167 35.917 C 125.053 36.054,124.857 36.167,124.731 36.167 C 124.339 36.167,122.753 37.379,121.985 38.265 C 121.581 38.731,121.015 39.385,120.728 39.717 C 120.441 40.049,120.158 40.511,120.100 40.744 C 120.041 40.976,119.920 41.167,119.830 41.167 C 119.740 41.167,119.667 41.307,119.667 41.478 C 119.667 41.648,119.517 41.979,119.333 42.212 C 119.150 42.445,119.000 42.816,119.000 43.036 C 119.000 43.256,118.890 43.582,118.755 43.760 C 118.399 44.231,118.399 49.769,118.755 50.240 C 118.890 50.418,118.998 50.718,118.996 50.907 C 118.992 51.235,120.124 53.655,120.367 53.838 C 120.432 53.887,120.694 54.232,120.951 54.606 C 121.392 55.249,122.668 56.453,123.489 57.000 C 123.696 57.137,124.019 57.381,124.208 57.542 C 124.397 57.702,124.654 57.833,124.781 57.833 C 124.907 57.833,125.054 57.946,125.106 58.083 C 125.159 58.221,125.327 58.333,125.479 58.333 C 125.631 58.333,126.035 58.483,126.377 58.667 C 126.719 58.850,127.226 59.000,127.505 59.000 C 127.783 59.000,128.280 59.112,128.609 59.250 C 129.416 59.587,132.577 59.587,133.167 59.250 C 133.396 59.119,133.771 59.007,134.000 59.000 C 134.229 58.994,134.717 58.844,135.083 58.667 C 135.450 58.490,135.956 58.342,136.208 58.339 C 136.460 58.336,136.667 58.263,136.667 58.178 C 136.667 58.092,136.835 57.971,137.042 57.908 C 137.675 57.713,139.500 56.158,139.500 55.812 C 139.500 55.582,135.651 51.838,135.412 51.835 C 135.318 51.834,135.064 51.957,134.848 52.108 C 134.129 52.612,132.986 53.167,132.668 53.167 C 132.495 53.167,132.313 53.232,132.264 53.311 C 132.080 53.608,130.849 53.671,130.131 53.420 C 129.738 53.283,129.275 53.170,129.102 53.169 C 128.702 53.166,127.293 52.484,127.117 52.208 C 127.043 52.094,126.881 52.000,126.756 52.000 C 126.427 52.000,125.465 50.724,125.531 50.377 C 125.584 50.102,126.162 50.078,134.502 50.000 L 143.417 49.917 143.468 48.333 C 143.501 47.318,143.431 46.391,143.271 45.750 C 143.134 45.200,142.977 44.422,142.922 44.021 C 142.867 43.619,142.713 43.134,142.578 42.942 C 142.443 42.750,142.333 42.431,142.333 42.233 C 142.333 42.036,142.221 41.781,142.083 41.667 C 141.946 41.553,141.833 41.358,141.833 41.235 C 141.833 40.952,140.503 39.000,140.310 39.000 C 140.231 39.000,140.167 38.931,140.167 38.847 C 140.167 38.420,137.453 36.167,136.939 36.167 C 136.812 36.167,136.614 36.054,136.500 35.917 C 136.386 35.779,136.168 35.667,136.017 35.667 C 135.865 35.667,135.584 35.557,135.392 35.422 C 135.199 35.287,134.714 35.127,134.313 35.066 C 133.912 35.004,133.381 34.852,133.133 34.727 C 132.527 34.421,129.081 34.426,128.500 34.734 M276.745 34.726 C 276.565 34.851,276.143 35.003,275.808 35.064 C 275.474 35.125,275.108 35.286,274.996 35.421 C 274.884 35.556,274.622 35.667,274.414 35.667 C 274.206 35.667,273.992 35.779,273.940 35.917 C 273.887 36.054,273.707 36.167,273.539 36.167 C 273.224 36.167,272.928 36.366,271.870 37.293 C 271.529 37.591,271.137 37.875,271.000 37.924 C 270.602 38.065,268.333 41.145,268.333 41.545 C 268.333 41.663,268.231 41.907,268.107 42.088 C 267.982 42.269,267.826 42.717,267.759 43.083 C 267.692 43.450,267.550 43.855,267.443 43.984 C 267.057 44.451,267.088 48.950,267.485 50.082 C 267.677 50.626,267.833 51.211,267.833 51.381 C 267.833 51.551,267.946 51.803,268.083 51.940 C 268.221 52.078,268.333 52.331,268.333 52.502 C 268.333 52.673,268.409 52.861,268.503 52.918 C 268.596 52.976,268.782 53.261,268.916 53.553 C 269.275 54.333,269.487 54.614,270.500 55.650 C 272.032 57.218,274.861 59.000,275.817 59.000 C 276.066 59.000,276.415 59.110,276.593 59.245 C 277.058 59.597,282.497 59.609,283.141 59.260 C 283.384 59.128,283.865 58.975,284.208 58.919 C 284.552 58.864,284.833 58.747,284.833 58.659 C 284.833 58.212,285.679 58.518,285.775 59.000 L 285.875 59.500 289.021 59.500 L 292.167 59.500 292.167 47.000 L 292.167 34.500 289.011 34.500 L 285.855 34.500 285.803 34.942 C 285.722 35.613,285.285 35.805,284.627 35.457 C 284.328 35.298,283.821 35.119,283.500 35.060 C 283.179 35.001,282.714 34.851,282.467 34.726 C 281.831 34.407,277.209 34.407,276.745 34.726 M305.606 34.751 C 305.343 34.888,305.014 35.000,304.874 35.000 C 304.638 35.000,303.410 35.514,302.833 35.853 C 302.696 35.934,302.413 36.075,302.204 36.165 C 301.790 36.343,301.460 36.591,301.035 37.042 C 300.883 37.202,300.694 37.333,300.615 37.333 C 300.304 37.333,297.667 40.232,297.667 40.574 C 297.667 40.689,297.517 40.955,297.333 41.167 C 297.150 41.378,297.000 41.675,297.000 41.827 C 297.000 41.979,296.890 42.249,296.755 42.426 C 296.621 42.604,296.508 43.017,296.505 43.343 C 296.502 43.669,296.390 44.082,296.255 44.260 C 295.901 44.729,295.896 49.095,296.249 49.773 C 296.386 50.035,296.498 50.477,296.499 50.755 C 296.500 51.032,296.602 51.407,296.728 51.588 C 296.853 51.769,297.013 52.101,297.083 52.326 C 297.153 52.550,297.313 52.837,297.439 52.962 C 297.564 53.088,297.667 53.327,297.667 53.494 C 297.667 53.661,297.779 53.841,297.917 53.894 C 298.054 53.946,298.167 54.093,298.167 54.219 C 298.167 54.673,301.191 57.447,302.167 57.888 C 302.304 57.951,302.792 58.221,303.250 58.490 C 303.708 58.758,304.313 58.983,304.593 58.989 C 304.874 58.995,305.249 59.110,305.426 59.245 C 305.897 59.600,311.103 59.600,311.574 59.245 C 311.751 59.110,312.104 59.000,312.356 59.000 C 312.784 59.000,314.217 58.349,314.575 57.991 C 314.662 57.904,314.824 57.833,314.935 57.833 C 315.202 57.833,316.500 56.979,316.500 56.804 C 316.500 56.728,316.572 56.667,316.660 56.667 C 316.854 56.667,318.167 55.363,318.167 55.171 C 318.167 55.097,318.279 54.992,318.417 54.940 C 318.732 54.819,318.747 54.167,318.434 54.167 C 318.307 54.167,318.159 54.054,318.106 53.917 C 318.054 53.779,317.930 53.667,317.832 53.667 C 317.654 53.667,316.795 53.105,316.368 52.708 C 316.244 52.594,316.079 52.500,316.000 52.500 C 315.921 52.500,315.755 52.406,315.630 52.292 C 315.352 52.037,314.935 51.770,314.167 51.355 L 313.583 51.040 313.174 51.520 C 312.950 51.784,312.676 52.000,312.567 52.000 C 312.458 52.000,312.326 52.112,312.273 52.250 C 312.220 52.387,312.071 52.500,311.942 52.500 C 311.813 52.500,311.619 52.607,311.511 52.737 C 311.403 52.867,311.000 53.024,310.615 53.085 C 310.231 53.146,309.600 53.301,309.212 53.428 C 308.544 53.648,307.622 53.603,307.250 53.332 C 307.158 53.265,306.802 53.159,306.458 53.098 C 306.115 53.036,305.833 52.921,305.833 52.842 C 305.833 52.764,305.613 52.622,305.343 52.528 C 304.630 52.280,303.312 50.881,302.799 49.828 C 302.113 48.420,302.070 45.073,302.730 44.413 C 302.878 44.264,303.000 44.047,303.000 43.930 C 303.000 43.533,304.699 41.730,305.224 41.570 C 305.422 41.510,305.696 41.366,305.833 41.251 C 306.560 40.644,310.499 40.646,311.171 41.254 C 311.321 41.389,311.516 41.500,311.604 41.500 C 311.796 41.500,312.324 41.894,313.063 42.591 L 313.602 43.098 314.593 42.379 C 315.138 41.984,315.752 41.575,315.958 41.470 C 316.165 41.366,316.333 41.217,316.333 41.140 C 316.333 41.063,316.414 41.000,316.514 41.000 C 316.613 41.000,317.007 40.749,317.389 40.442 C 317.771 40.136,318.215 39.838,318.375 39.781 C 318.812 39.625,318.744 39.466,317.833 38.516 C 317.375 38.038,317.000 37.576,317.000 37.490 C 317.000 37.404,316.924 37.333,316.832 37.333 C 316.739 37.333,316.308 37.085,315.873 36.781 C 315.439 36.478,314.971 36.178,314.833 36.116 C 314.696 36.053,314.471 35.936,314.333 35.854 C 313.689 35.473,312.513 35.000,312.209 35.000 C 312.023 35.000,311.657 34.888,311.394 34.751 C 310.712 34.396,306.288 34.396,305.606 34.751 M354.167 34.734 C 353.938 34.855,353.422 35.004,353.021 35.066 C 352.619 35.127,352.134 35.287,351.942 35.422 C 351.750 35.557,351.468 35.667,351.317 35.667 C 351.165 35.667,350.947 35.779,350.833 35.917 C 350.719 36.054,350.522 36.167,350.395 36.167 C 349.880 36.167,347.167 38.420,347.167 38.847 C 347.167 38.931,347.102 39.000,347.023 39.000 C 346.830 39.000,345.500 40.952,345.500 41.235 C 345.500 41.358,345.387 41.553,345.250 41.667 C 345.113 41.781,345.000 41.998,345.000 42.150 C 345.000 42.302,344.891 42.582,344.758 42.772 C 344.624 42.962,344.442 43.575,344.352 44.133 C 344.262 44.692,344.108 45.298,344.011 45.480 C 343.750 45.968,343.795 47.919,344.083 48.609 C 344.221 48.938,344.336 49.479,344.339 49.812 C 344.342 50.145,344.490 50.717,344.667 51.083 C 344.844 51.450,344.991 51.872,344.994 52.021 C 344.997 52.170,345.113 52.386,345.250 52.500 C 345.387 52.614,345.500 52.832,345.500 52.983 C 345.500 53.135,345.650 53.388,345.833 53.545 C 346.017 53.702,346.167 53.943,346.167 54.082 C 346.167 54.220,346.244 54.333,346.339 54.333 C 346.433 54.333,346.560 54.461,346.620 54.618 C 346.726 54.896,348.414 56.667,348.572 56.667 C 348.678 56.667,349.885 57.488,349.996 57.635 C 350.116 57.794,351.580 58.500,351.790 58.500 C 351.883 58.500,352.053 58.612,352.167 58.750 C 352.288 58.896,352.660 59.002,353.062 59.006 C 353.440 59.009,353.938 59.119,354.167 59.250 C 354.461 59.419,355.144 59.488,356.500 59.488 C 357.856 59.488,358.539 59.419,358.833 59.250 C 359.063 59.119,359.457 59.009,359.709 59.006 C 359.961 59.003,360.448 58.850,360.790 58.667 C 361.132 58.483,361.572 58.333,361.769 58.333 C 361.965 58.333,362.219 58.221,362.333 58.083 C 362.447 57.946,362.650 57.833,362.784 57.833 C 363.015 57.833,364.240 56.936,364.881 56.297 C 365.291 55.889,365.179 55.729,363.011 53.625 C 360.979 51.653,361.054 51.695,360.455 52.167 C 360.221 52.350,359.958 52.500,359.869 52.500 C 359.780 52.500,359.619 52.607,359.511 52.737 C 359.403 52.867,359.000 53.026,358.615 53.089 C 358.231 53.153,357.842 53.261,357.750 53.330 C 357.360 53.626,356.337 53.672,355.738 53.423 C 355.402 53.282,354.980 53.167,354.803 53.167 C 353.531 53.167,350.635 50.765,351.211 50.189 C 351.347 50.053,353.838 50.000,360.117 50.000 L 368.833 50.000 368.833 47.199 C 368.833 44.993,368.781 44.328,368.589 44.074 C 368.454 43.896,368.342 43.561,368.339 43.331 C 368.336 43.100,368.183 42.632,368.000 42.290 C 367.817 41.948,367.667 41.555,367.667 41.417 C 367.667 41.279,367.597 41.167,367.511 41.167 C 367.426 41.167,367.304 40.998,367.241 40.792 C 366.952 39.849,364.174 36.945,363.000 36.358 C 362.587 36.152,362.137 35.925,362.000 35.853 C 360.917 35.288,360.521 35.141,359.850 35.052 C 359.428 34.996,358.935 34.849,358.755 34.725 C 358.306 34.418,354.751 34.425,354.167 34.734 M63.771 40.993 C 63.966 40.997,64.219 41.112,64.333 41.250 C 64.447 41.387,64.663 41.502,64.812 41.504 C 65.539 41.514,67.833 44.299,67.833 45.171 C 67.833 45.407,67.916 45.683,68.017 45.784 C 68.264 46.031,68.272 47.962,68.027 48.206 C 67.920 48.313,67.833 48.583,67.833 48.807 C 67.833 49.683,66.119 52.094,65.167 52.558 C 65.029 52.625,64.729 52.788,64.500 52.921 C 64.271 53.053,63.817 53.163,63.492 53.164 C 63.166 53.166,62.809 53.258,62.697 53.370 C 62.443 53.624,60.714 53.614,60.456 53.356 C 60.352 53.252,60.139 53.167,59.982 53.167 C 59.033 53.167,56.694 51.339,56.235 50.239 C 56.108 49.937,55.936 49.647,55.851 49.595 C 55.767 49.542,55.644 49.106,55.578 48.625 C 55.512 48.144,55.402 47.600,55.332 47.416 C 55.172 46.992,55.701 44.461,55.968 44.372 C 56.077 44.335,56.167 44.161,56.167 43.983 C 56.167 43.594,58.140 41.500,58.507 41.500 C 58.650 41.500,58.860 41.406,58.973 41.292 C 59.341 40.922,62.158 40.551,62.833 40.784 C 63.154 40.895,63.576 40.989,63.771 40.993 M132.618 40.859 C 133.096 40.984,133.580 41.180,133.693 41.293 C 133.807 41.407,134.018 41.500,134.163 41.500 C 134.308 41.500,134.548 41.631,134.696 41.792 C 134.845 41.952,135.143 42.233,135.359 42.417 C 137.117 43.910,136.730 44.073,131.266 44.134 C 125.303 44.202,125.069 44.149,125.898 42.929 C 126.286 42.356,127.339 41.500,127.654 41.500 C 127.730 41.500,127.880 41.394,127.988 41.264 C 128.095 41.135,128.555 40.978,129.008 40.916 C 129.462 40.853,129.879 40.728,129.935 40.637 C 130.060 40.435,131.434 40.549,132.618 40.859 M281.368 40.899 C 281.800 41.002,282.246 41.180,282.360 41.293 C 282.474 41.407,282.683 41.502,282.825 41.504 C 283.586 41.514,285.833 44.316,285.833 45.255 C 285.833 45.536,285.919 45.852,286.024 45.957 C 286.129 46.062,286.214 46.569,286.214 47.083 C 286.214 47.598,286.129 48.105,286.024 48.210 C 285.919 48.314,285.833 48.643,285.833 48.940 C 285.833 49.237,285.757 49.527,285.664 49.585 C 285.571 49.642,285.394 49.931,285.270 50.227 C 285.046 50.765,283.636 52.326,283.167 52.557 C 283.029 52.624,282.729 52.788,282.500 52.921 C 282.271 53.053,281.817 53.163,281.492 53.164 C 281.166 53.166,280.809 53.258,280.697 53.370 C 280.443 53.624,278.714 53.614,278.456 53.356 C 278.352 53.252,278.139 53.167,277.982 53.167 C 277.617 53.167,276.000 52.332,276.000 52.143 C 276.000 52.064,275.908 52.000,275.796 52.000 C 275.510 52.000,274.507 50.857,274.233 50.220 C 274.108 49.928,273.929 49.642,273.836 49.585 C 273.743 49.527,273.667 49.323,273.667 49.130 C 273.667 48.937,273.540 48.379,273.386 47.890 C 273.123 47.056,273.123 46.944,273.386 46.110 C 273.540 45.621,273.667 45.056,273.667 44.855 C 273.667 44.654,273.779 44.446,273.917 44.394 C 274.054 44.341,274.167 44.162,274.167 43.997 C 274.167 43.621,276.175 41.500,276.530 41.500 C 276.675 41.500,276.880 41.394,276.987 41.265 C 277.094 41.137,277.634 40.978,278.187 40.914 C 278.740 40.850,279.393 40.737,279.638 40.663 C 279.883 40.589,280.196 40.570,280.333 40.620 C 280.471 40.671,280.937 40.796,281.368 40.899 M357.407 40.651 C 357.458 40.734,357.872 40.853,358.325 40.916 C 358.779 40.978,359.238 41.135,359.345 41.264 C 359.453 41.394,359.603 41.500,359.680 41.500 C 360.197 41.500,361.833 43.154,361.833 43.678 C 361.833 44.068,360.730 44.167,356.360 44.167 C 350.635 44.167,350.145 43.971,351.975 42.417 C 352.190 42.233,352.489 41.952,352.637 41.792 C 352.786 41.631,353.032 41.500,353.183 41.500 C 353.335 41.500,353.553 41.387,353.667 41.250 C 353.781 41.112,354.034 40.996,354.229 40.991 C 354.424 40.985,354.846 40.882,355.167 40.760 C 355.849 40.502,357.272 40.433,357.407 40.651 " stroke="none" fill="#2464ab" fill-rule="evenodd"></path><path id="path1" d="M195.592 13.621 C 195.152 13.733,194.296 14.326,193.000 15.416 C 192.125 16.152,191.789 16.333,191.250 16.361 C 190.110 16.420,188.759 16.308,188.549 16.136 C 186.817 14.719,184.115 14.624,182.767 15.933 C 182.225 16.459,181.500 17.725,181.500 18.145 C 181.500 18.572,180.758 19.606,180.019 20.208 L 179.251 20.833 177.106 20.833 L 174.960 20.833 173.991 21.422 C 172.396 22.391,172.000 23.210,171.999 25.544 C 171.998 28.500,170.805 30.500,169.042 30.500 C 168.858 30.500,168.614 30.613,168.500 30.750 C 168.386 30.887,168.199 31.000,168.086 31.000 C 166.804 31.000,165.408 35.163,166.410 35.995 C 166.544 36.106,166.703 36.359,166.763 36.557 C 166.823 36.755,166.962 37.029,167.071 37.167 C 168.102 38.464,167.854 40.675,166.506 42.205 C 164.217 44.802,164.386 47.256,166.975 49.010 C 169.422 50.667,169.805 51.928,168.825 55.095 C 168.003 57.750,169.592 59.613,173.155 60.172 C 174.864 60.441,176.168 61.649,176.415 63.194 C 176.818 65.720,177.578 66.997,179.063 67.645 C 179.905 68.013,181.148 68.117,181.425 67.843 C 181.512 67.757,182.145 67.570,182.831 67.427 C 185.111 66.954,185.851 67.306,188.116 69.945 C 189.943 72.073,192.098 72.111,194.330 70.054 C 196.092 68.432,197.777 68.151,199.534 69.187 C 202.304 70.820,204.735 70.300,205.860 67.834 C 206.049 67.421,206.323 66.821,206.471 66.500 C 207.330 64.634,208.179 64.179,210.814 64.172 C 214.513 64.163,215.525 63.135,215.666 59.243 L 215.751 56.902 216.317 56.187 C 216.918 55.429,217.864 54.749,218.563 54.574 C 218.796 54.515,219.074 54.362,219.180 54.234 C 219.287 54.105,219.509 54.000,219.674 54.000 C 219.839 54.000,220.278 53.644,220.650 53.209 C 221.920 51.723,221.893 49.620,220.580 47.833 C 219.540 46.418,219.851 44.298,221.337 42.666 C 223.626 40.153,223.454 37.899,220.833 36.092 C 219.795 35.375,218.873 34.435,218.651 33.864 C 218.387 33.189,218.467 30.954,218.770 30.521 C 219.950 28.838,218.493 25.743,216.328 25.332 C 215.868 25.245,215.348 25.097,215.173 25.003 C 214.998 24.910,214.607 24.833,214.303 24.833 C 212.943 24.831,211.468 23.289,211.242 21.631 C 210.919 19.273,210.079 17.952,208.577 17.440 C 207.401 17.040,207.319 17.047,204.618 17.791 C 202.830 18.284,201.818 17.749,199.667 15.177 C 198.541 13.832,197.031 13.255,195.592 13.621 M196.333 24.651 C 197.328 24.737,198.299 24.916,198.583 25.067 C 198.858 25.212,199.273 25.332,199.505 25.332 C 199.736 25.333,200.074 25.436,200.255 25.562 C 200.435 25.688,200.827 25.844,201.125 25.909 C 201.423 25.973,201.667 26.094,201.667 26.177 C 201.667 26.259,201.870 26.378,202.118 26.440 C 203.508 26.789,207.588 30.371,208.925 32.417 C 210.121 34.247,211.057 36.436,211.596 38.667 C 212.000 40.334,212.003 44.992,211.602 46.250 C 211.456 46.708,211.336 47.233,211.334 47.417 C 211.333 47.600,211.219 47.965,211.082 48.227 C 210.945 48.490,210.833 48.781,210.833 48.874 C 210.833 48.966,210.556 49.614,210.218 50.313 C 208.485 53.888,205.325 57.151,202.229 58.562 C 201.942 58.692,201.656 58.882,201.594 58.983 C 201.531 59.084,201.314 59.167,201.111 59.167 C 200.907 59.167,200.593 59.270,200.412 59.395 C 200.231 59.521,199.821 59.677,199.500 59.741 C 199.179 59.806,198.617 59.959,198.250 60.082 C 197.058 60.482,193.900 60.718,192.446 60.515 C 191.729 60.415,190.867 60.333,190.530 60.332 C 190.192 60.332,189.722 60.230,189.484 60.106 C 189.247 59.982,188.763 59.826,188.410 59.760 C 188.056 59.693,187.615 59.533,187.430 59.403 C 187.244 59.273,186.952 59.167,186.781 59.167 C 186.609 59.167,186.279 59.017,186.045 58.833 C 185.812 58.650,185.522 58.500,185.399 58.500 C 184.926 58.500,182.513 56.683,181.063 55.234 C 178.566 52.739,176.740 49.486,176.319 46.783 C 176.237 46.251,176.075 45.651,175.959 45.449 C 175.614 44.845,175.676 40.265,176.042 39.372 C 176.202 38.980,176.333 38.376,176.333 38.028 C 176.333 37.681,176.443 37.251,176.578 37.074 C 176.713 36.896,176.827 36.600,176.832 36.417 C 176.864 35.321,179.154 31.730,181.030 29.833 C 182.828 28.016,186.077 25.833,186.983 25.833 C 187.153 25.833,187.386 25.721,187.500 25.583 C 187.614 25.446,187.883 25.333,188.098 25.333 C 188.312 25.333,188.868 25.183,189.333 25.000 C 189.800 24.816,190.606 24.660,191.131 24.652 C 191.655 24.644,192.458 24.578,192.917 24.506 C 193.375 24.434,193.938 24.403,194.167 24.438 C 194.396 24.472,195.371 24.568,196.333 24.651 M193.133 28.726 C 192.921 28.887,192.837 29.250,192.800 30.162 C 192.764 31.040,192.680 31.418,192.500 31.510 C 191.916 31.811,191.019 32.167,190.846 32.167 C 190.368 32.167,188.167 33.884,188.167 34.257 C 188.167 34.354,188.082 34.518,187.978 34.622 C 186.683 35.917,187.020 39.613,188.583 41.247 C 189.530 42.238,191.805 43.642,192.875 43.897 C 193.127 43.957,193.333 44.080,193.333 44.170 C 193.333 44.260,193.442 44.333,193.575 44.333 C 193.935 44.333,195.220 45.054,195.680 45.513 C 196.384 46.216,196.377 48.431,195.670 49.138 C 194.448 50.360,191.728 49.467,191.449 47.752 C 191.242 46.473,191.003 46.333,189.018 46.333 C 186.667 46.333,186.416 46.486,186.557 47.833 C 186.813 50.278,188.441 52.035,191.345 52.999 C 192.682 53.442,192.833 53.641,192.833 54.943 C 192.833 56.182,193.002 56.335,194.364 56.331 C 195.962 56.327,196.000 56.295,196.000 54.970 C 196.000 53.529,196.156 53.231,197.044 52.976 C 199.439 52.288,200.979 50.327,201.125 47.781 C 201.289 44.909,200.116 43.258,196.667 41.506 C 196.254 41.296,195.804 41.059,195.667 40.978 C 195.529 40.897,195.304 40.788,195.167 40.734 C 191.729 39.400,190.864 36.141,193.735 35.338 C 195.066 34.965,195.765 35.495,196.419 37.375 L 196.694 38.167 198.844 38.167 L 200.994 38.167 201.101 37.738 C 201.249 37.149,201.056 35.887,200.752 35.452 C 200.613 35.254,200.500 34.976,200.500 34.834 C 200.500 34.333,198.729 32.766,197.391 32.083 L 196.083 31.417 196.034 30.174 C 196.006 29.491,195.903 28.834,195.805 28.716 C 195.567 28.429,193.514 28.437,193.133 28.726 " stroke="none" fill="#f40505" fill-rule="evenodd"></path><path id="path2" d="M96.412 23.371 C 96.367 23.488,96.350 31.683,96.374 41.583 L 96.417 59.583 99.417 59.631 C 103.624 59.697,103.166 60.105,103.172 56.288 L 103.177 53.083 104.424 51.781 C 105.748 50.398,106.116 50.270,106.523 51.053 C 106.627 51.253,107.189 52.140,107.773 53.025 C 108.356 53.909,108.833 54.709,108.833 54.802 C 108.833 54.896,108.891 54.997,108.962 55.028 C 109.032 55.058,109.378 55.533,109.730 56.083 C 110.083 56.633,110.512 57.287,110.685 57.535 C 110.858 57.783,111.000 58.024,111.000 58.069 C 111.000 58.221,111.851 59.408,112.052 59.535 C 112.326 59.710,119.197 59.695,119.474 59.520 C 119.647 59.410,119.481 59.042,118.743 57.897 C 118.218 57.083,117.525 56.004,117.203 55.500 C 116.881 54.996,116.104 53.809,115.475 52.864 C 114.847 51.918,114.333 51.111,114.333 51.070 C 114.333 51.030,114.071 50.623,113.750 50.167 C 113.429 49.710,113.167 49.303,113.167 49.262 C 113.167 49.221,112.676 48.464,112.076 47.579 C 110.421 45.138,110.336 45.536,113.167 42.499 C 113.811 41.808,114.134 41.447,116.071 39.250 C 117.217 37.950,117.954 37.136,119.000 36.017 C 120.629 34.273,120.753 34.339,115.862 34.336 L 111.974 34.333 111.344 34.958 C 110.998 35.302,110.092 36.296,109.331 37.167 C 108.115 38.559,107.035 39.756,104.180 42.873 C 103.776 43.316,103.382 43.616,103.307 43.540 C 103.231 43.464,103.150 38.868,103.126 33.326 L 103.083 23.250 99.788 23.205 C 97.242 23.170,96.474 23.208,96.412 23.371 M322.115 23.274 C 321.839 23.550,321.986 59.459,322.264 59.566 C 322.605 59.697,327.967 59.693,328.458 59.562 C 328.830 59.462,328.833 59.436,328.833 56.323 L 328.833 53.186 329.829 52.031 C 331.436 50.169,331.496 50.152,332.316 51.346 C 332.692 51.895,333.000 52.380,333.000 52.424 C 333.000 52.468,333.262 52.877,333.583 53.333 C 333.904 53.790,334.167 54.192,334.167 54.226 C 334.167 54.261,334.654 55.013,335.250 55.898 C 335.846 56.783,336.333 57.540,336.333 57.582 C 336.333 57.623,336.644 58.109,337.023 58.661 L 337.713 59.667 341.430 59.667 C 345.617 59.667,345.579 59.680,344.756 58.508 C 344.432 58.047,344.167 57.631,344.167 57.583 C 344.167 57.536,343.923 57.137,343.625 56.698 C 343.036 55.830,342.906 55.625,342.231 54.500 C 341.984 54.087,341.568 53.477,341.308 53.143 C 341.047 52.809,340.833 52.489,340.833 52.433 C 340.833 52.376,340.571 51.956,340.250 51.500 C 339.929 51.044,339.667 50.631,339.667 50.583 C 339.667 50.536,339.404 50.123,339.083 49.667 C 338.762 49.210,338.500 48.767,338.500 48.682 C 338.500 48.597,338.440 48.503,338.368 48.472 C 338.295 48.442,337.797 47.722,337.261 46.872 C 336.204 45.197,336.209 45.261,337.081 44.417 C 337.176 44.325,337.845 43.575,338.568 42.750 C 339.292 41.925,340.304 40.799,340.817 40.247 C 341.330 39.696,342.574 38.308,343.582 37.164 C 344.589 36.020,345.519 35.001,345.649 34.900 C 346.265 34.422,345.638 34.333,341.638 34.333 L 337.630 34.333 336.940 35.049 C 336.023 35.999,333.414 38.854,332.414 40.000 C 330.151 42.594,329.285 43.471,329.068 43.388 C 328.874 43.313,328.829 41.651,328.793 33.274 L 328.750 23.250 325.490 23.205 C 323.696 23.180,322.178 23.211,322.115 23.274 M102.833 33.063 C 102.833 45.728,102.668 45.113,105.250 42.079 C 105.708 41.540,106.215 40.985,106.375 40.846 C 106.535 40.707,106.667 40.497,106.667 40.380 C 106.667 40.262,106.779 40.167,106.917 40.167 C 107.054 40.167,107.167 40.110,107.168 40.042 C 107.169 39.973,107.562 39.495,108.043 38.979 C 108.523 38.464,109.292 37.605,109.750 37.071 C 110.208 36.537,110.913 35.740,111.316 35.300 L 112.050 34.500 115.941 34.500 C 118.082 34.500,119.833 34.543,119.833 34.594 C 119.833 34.715,118.326 36.448,117.292 37.517 C 116.856 37.967,116.500 38.363,116.500 38.397 C 116.500 38.431,116.174 38.799,115.775 39.215 C 115.376 39.631,114.683 40.408,114.233 40.943 C 113.784 41.477,113.210 42.100,112.958 42.327 C 112.706 42.555,112.500 42.837,112.500 42.954 C 112.500 43.071,112.388 43.167,112.250 43.167 C 112.112 43.167,111.998 43.223,111.996 43.292 C 111.994 43.360,111.657 43.784,111.246 44.234 C 110.285 45.286,110.285 45.274,111.418 47.000 C 112.113 48.059,112.296 48.365,112.489 48.792 C 112.582 48.998,112.735 49.167,112.829 49.167 C 112.923 49.167,113.000 49.268,113.000 49.393 C 113.000 49.517,113.263 49.963,113.583 50.383 C 113.904 50.803,114.167 51.221,114.167 51.311 C 114.167 51.402,114.260 51.577,114.375 51.701 C 114.682 52.033,115.333 52.971,115.333 53.083 C 115.333 53.195,115.984 54.134,116.292 54.466 C 116.406 54.589,116.500 54.794,116.500 54.920 C 116.500 55.047,116.594 55.210,116.708 55.283 C 116.959 55.444,117.276 55.921,117.543 56.542 C 117.651 56.794,117.800 57.000,117.874 57.000 C 117.948 57.000,118.081 57.169,118.170 57.375 C 118.352 57.796,118.611 58.223,119.042 58.812 C 119.202 59.032,119.333 59.277,119.333 59.356 C 119.333 59.435,117.740 59.497,115.792 59.493 L 112.250 59.487 111.708 58.751 C 111.410 58.345,111.167 57.941,111.167 57.852 C 111.167 57.763,111.068 57.591,110.947 57.470 C 110.827 57.349,110.508 56.887,110.239 56.444 C 109.970 56.000,109.621 55.438,109.463 55.194 C 109.306 54.950,109.060 54.544,108.917 54.292 C 108.775 54.040,108.585 53.833,108.496 53.833 C 108.406 53.833,108.333 53.718,108.333 53.577 C 108.333 53.334,107.832 52.527,107.375 52.034 C 107.260 51.911,107.167 51.700,107.167 51.566 C 107.167 51.432,107.054 51.280,106.917 51.227 C 106.779 51.174,106.667 51.051,106.667 50.954 C 106.667 50.680,106.144 50.167,105.866 50.167 C 105.645 50.167,104.000 51.726,104.000 51.936 C 104.000 51.981,103.756 52.241,103.458 52.513 L 102.917 53.008 102.862 56.254 L 102.808 59.500 99.654 59.500 L 96.500 59.500 96.500 41.417 L 96.500 23.333 99.667 23.333 L 102.833 23.333 102.833 33.063 M328.333 33.239 C 328.333 43.698,328.365 44.168,329.040 43.818 C 329.537 43.561,331.162 41.868,333.417 39.259 C 333.875 38.728,334.512 38.012,334.833 37.666 C 335.154 37.321,335.938 36.467,336.576 35.769 L 337.734 34.500 341.602 34.500 L 345.469 34.500 345.276 34.915 C 345.170 35.144,344.990 35.331,344.875 35.332 C 344.760 35.333,344.667 35.408,344.667 35.500 C 344.667 35.592,344.419 35.911,344.115 36.209 C 343.812 36.506,343.118 37.273,342.574 37.911 C 342.029 38.550,341.377 39.279,341.125 39.531 C 340.873 39.783,340.667 40.032,340.667 40.084 C 340.667 40.136,340.343 40.495,339.947 40.881 C 337.066 43.693,335.897 45.421,336.422 46.091 C 336.903 46.705,337.833 48.196,337.833 48.353 C 337.833 48.440,337.946 48.554,338.083 48.606 C 338.221 48.659,338.333 48.796,338.333 48.911 C 338.333 49.025,338.596 49.463,338.917 49.883 C 339.237 50.303,339.500 50.721,339.500 50.811 C 339.500 50.902,339.594 51.077,339.708 51.201 C 340.009 51.525,340.667 52.470,340.667 52.578 C 340.667 52.629,340.929 53.044,341.250 53.500 C 341.571 53.956,341.833 54.402,341.833 54.490 C 341.833 54.578,341.929 54.710,342.045 54.783 C 342.162 54.857,342.349 55.104,342.461 55.333 C 342.772 55.971,343.064 56.404,343.273 56.540 C 343.377 56.607,343.510 56.851,343.568 57.081 C 343.626 57.312,343.747 57.500,343.837 57.500 C 343.926 57.500,344.000 57.576,344.000 57.668 C 344.000 57.761,344.263 58.211,344.585 58.668 L 345.169 59.500 341.418 59.500 C 339.003 59.500,337.667 59.440,337.667 59.332 C 337.667 59.239,337.418 58.808,337.115 58.373 C 336.811 57.939,336.511 57.471,336.447 57.333 C 336.383 57.196,336.032 56.633,335.667 56.083 C 335.302 55.533,334.930 54.915,334.839 54.708 C 334.749 54.502,334.598 54.333,334.504 54.333 C 334.410 54.333,334.333 54.221,334.333 54.083 C 334.333 53.946,334.202 53.696,334.042 53.527 C 333.642 53.107,333.362 52.668,333.148 52.125 C 333.049 51.873,332.905 51.667,332.828 51.667 C 332.752 51.667,332.644 51.524,332.588 51.349 C 332.533 51.174,332.270 50.781,332.004 50.477 L 331.520 49.923 330.260 51.213 C 328.346 53.170,328.333 53.207,328.333 56.623 L 328.333 59.500 325.333 59.500 L 322.333 59.500 322.333 41.417 L 322.333 23.333 325.333 23.333 L 328.333 23.333 328.333 33.239 M9.778 24.444 C 9.717 24.506,9.667 32.415,9.667 42.020 L 9.667 59.485 10.208 59.583 C 10.506 59.637,12.100 59.659,13.750 59.632 L 16.750 59.583 16.833 49.833 C 16.879 44.471,16.981 39.984,17.059 39.863 C 17.158 39.709,17.496 40.160,18.185 41.363 C 18.726 42.309,19.245 43.196,19.338 43.333 C 19.431 43.471,19.620 43.808,19.759 44.083 C 19.897 44.358,20.157 44.808,20.336 45.083 C 20.515 45.358,20.730 45.733,20.813 45.917 C 21.251 46.882,24.726 52.625,25.023 52.875 C 25.808 53.534,29.507 53.216,29.839 52.461 C 29.930 52.253,30.154 51.858,30.336 51.583 C 30.518 51.308,30.782 50.858,30.922 50.583 C 31.063 50.308,31.323 49.858,31.500 49.583 C 31.677 49.308,31.937 48.858,32.078 48.583 C 32.218 48.308,32.482 47.858,32.664 47.583 C 32.847 47.308,33.048 46.971,33.110 46.833 C 33.417 46.161,36.773 40.523,37.112 40.112 C 37.678 39.425,37.663 39.179,37.708 49.833 L 37.750 59.583 41.018 59.628 C 43.634 59.665,44.325 59.628,44.478 59.444 C 44.729 59.141,44.669 24.473,44.417 24.389 C 44.306 24.352,44.265 30.251,44.293 41.920 L 44.336 59.507 41.127 59.462 L 37.917 59.417 37.874 49.453 C 37.837 40.901,37.796 39.475,37.588 39.395 C 37.308 39.288,36.513 40.110,36.505 40.516 C 36.502 40.662,36.350 40.917,36.167 41.083 C 35.983 41.249,35.833 41.523,35.833 41.692 C 35.833 41.862,35.764 42.000,35.679 42.000 C 35.594 42.000,35.327 42.394,35.086 42.875 C 34.499 44.047,34.109 44.731,33.964 44.840 C 33.898 44.889,33.642 45.302,33.396 45.756 C 33.149 46.211,32.772 46.883,32.559 47.250 C 32.345 47.617,32.078 48.104,31.964 48.333 C 31.850 48.563,31.704 48.789,31.639 48.837 C 31.574 48.884,31.440 49.109,31.341 49.337 C 31.243 49.564,31.014 49.975,30.833 50.250 C 30.652 50.525,30.410 50.938,30.295 51.167 C 30.181 51.396,29.993 51.682,29.877 51.804 C 29.761 51.925,29.667 52.160,29.667 52.326 C 29.667 52.957,25.115 53.123,24.917 52.500 C 24.858 52.317,24.747 52.167,24.669 52.167 C 24.590 52.167,24.478 51.948,24.420 51.681 C 24.361 51.413,24.205 51.153,24.073 51.102 C 23.941 51.052,23.833 50.899,23.833 50.764 C 23.833 50.628,23.611 50.187,23.339 49.784 C 23.067 49.382,22.769 48.853,22.677 48.609 C 22.584 48.366,22.431 48.167,22.337 48.167 C 22.244 48.167,22.167 48.022,22.167 47.845 C 22.167 47.668,22.072 47.425,21.956 47.304 C 21.841 47.182,21.652 46.896,21.538 46.667 C 21.423 46.438,21.182 46.025,21.001 45.750 C 20.820 45.475,20.591 45.064,20.492 44.837 C 20.393 44.609,20.259 44.384,20.195 44.337 C 20.130 44.289,19.984 44.063,19.871 43.833 C 19.758 43.604,19.401 42.967,19.078 42.417 C 18.755 41.867,18.379 41.173,18.243 40.875 C 18.107 40.577,17.922 40.333,17.831 40.333 C 17.741 40.333,17.667 40.193,17.667 40.020 C 17.667 39.848,17.546 39.607,17.399 39.485 C 16.695 38.901,16.667 39.304,16.667 49.699 L 16.667 59.500 13.417 59.500 L 10.167 59.500 10.167 42.014 C 10.167 28.181,10.210 24.510,10.375 24.444 C 10.490 24.397,10.427 24.354,10.236 24.346 C 10.045 24.339,9.839 24.383,9.778 24.444 M15.776 24.449 C 15.986 24.490,16.178 24.689,16.238 24.926 C 16.294 25.150,16.413 25.333,16.503 25.333 C 16.593 25.333,16.667 25.440,16.667 25.571 C 16.667 25.702,16.779 25.922,16.916 26.059 C 17.053 26.196,17.240 26.483,17.332 26.696 C 17.499 27.084,17.611 27.294,17.977 27.917 C 18.085 28.100,18.287 28.475,18.425 28.750 C 18.564 29.025,18.825 29.475,19.005 29.750 C 19.185 30.025,19.415 30.456,19.516 30.708 C 19.617 30.960,19.760 31.167,19.833 31.167 C 19.907 31.167,20.049 31.373,20.149 31.625 C 20.250 31.877,20.597 32.533,20.921 33.083 C 21.245 33.633,21.621 34.327,21.757 34.625 C 21.893 34.923,22.078 35.167,22.169 35.167 C 22.259 35.167,22.333 35.311,22.333 35.488 C 22.333 35.665,22.446 35.922,22.583 36.059 C 22.720 36.196,22.908 36.483,23.002 36.696 C 23.095 36.909,23.320 37.308,23.502 37.583 C 23.684 37.858,23.915 38.290,24.016 38.542 C 24.117 38.794,24.261 39.000,24.336 39.000 C 24.412 39.000,24.524 39.230,24.586 39.511 C 24.648 39.792,24.804 40.063,24.932 40.112 C 25.061 40.162,25.167 40.300,25.167 40.420 C 25.167 40.540,25.429 41.036,25.750 41.523 C 26.071 42.010,26.335 42.486,26.336 42.580 C 26.340 42.828,27.092 43.501,27.357 43.493 C 27.606 43.485,28.333 42.440,28.333 42.090 C 28.333 41.968,28.439 41.829,28.568 41.779 C 28.696 41.730,28.852 41.459,28.914 41.178 C 28.976 40.897,29.088 40.667,29.164 40.667 C 29.239 40.667,29.383 40.460,29.484 40.208 C 29.585 39.956,29.817 39.525,29.999 39.250 C 30.181 38.975,30.423 38.563,30.538 38.333 C 30.652 38.104,30.841 37.818,30.956 37.696 C 31.072 37.575,31.167 37.332,31.167 37.155 C 31.167 36.978,31.241 36.833,31.331 36.833 C 31.422 36.833,31.607 36.590,31.743 36.292 C 31.879 35.994,32.255 35.300,32.578 34.750 C 32.901 34.200,33.259 33.563,33.373 33.333 C 33.486 33.104,33.674 32.818,33.790 32.696 C 33.905 32.575,34.000 32.332,34.000 32.155 C 34.000 31.978,34.071 31.833,34.158 31.833 C 34.315 31.833,34.593 31.394,35.075 30.386 C 35.214 30.095,35.404 29.809,35.497 29.752 C 35.591 29.694,35.667 29.499,35.667 29.318 C 35.667 29.137,35.775 28.948,35.906 28.898 C 36.038 28.847,36.194 28.587,36.253 28.319 C 36.312 28.052,36.427 27.833,36.510 27.833 C 36.593 27.833,36.707 27.646,36.765 27.417 C 36.822 27.188,36.929 27.000,37.002 27.000 C 37.075 27.000,37.221 26.794,37.327 26.542 C 37.622 25.839,38.104 25.012,38.427 24.655 C 38.587 24.478,38.637 24.333,38.538 24.333 C 38.302 24.333,37.777 25.010,37.333 25.884 C 37.138 26.269,36.834 26.808,36.658 27.083 C 36.482 27.358,36.270 27.733,36.188 27.917 C 36.105 28.100,35.570 29.037,35.000 30.000 C 34.430 30.962,33.897 31.900,33.815 32.083 C 33.734 32.267,33.596 32.529,33.508 32.667 C 33.420 32.804,32.706 34.042,31.921 35.417 C 31.136 36.792,30.419 38.029,30.327 38.167 C 30.235 38.304,30.047 38.642,29.908 38.917 C 29.770 39.192,29.503 39.679,29.314 40.000 C 29.126 40.321,28.627 41.183,28.206 41.917 C 27.785 42.650,27.418 43.279,27.391 43.315 C 27.238 43.517,25.315 40.531,24.611 39.000 C 24.548 38.862,24.348 38.525,24.167 38.250 C 23.986 37.975,23.770 37.600,23.688 37.417 C 23.605 37.233,23.070 36.296,22.500 35.333 C 21.930 34.371,21.397 33.433,21.315 33.250 C 21.234 33.067,21.093 32.804,21.001 32.667 C 20.910 32.529,20.196 31.292,19.415 29.917 C 18.634 28.542,17.922 27.304,17.833 27.167 C 17.744 27.029,17.556 26.692,17.415 26.417 C 16.672 24.971,16.162 24.331,15.772 24.356 L 15.417 24.379 15.776 24.449 M225.000 27.583 C 225.000 30.072,225.049 30.833,225.208 30.834 C 225.369 30.834,225.406 30.127,225.368 27.723 C 225.330 25.317,225.368 24.581,225.534 24.475 C 225.684 24.380,225.635 24.338,225.375 24.336 L 225.000 24.333 225.000 27.583 M251.083 27.542 L 251.083 30.750 246.333 30.833 L 241.583 30.917 241.541 45.208 L 241.498 59.500 238.250 59.500 L 235.002 59.500 234.959 45.208 L 234.917 30.917 230.250 30.911 L 225.583 30.906 230.083 30.995 L 234.583 31.083 234.626 45.289 L 234.669 59.494 235.043 59.586 C 235.248 59.637,236.804 59.657,238.500 59.631 L 241.583 59.583 241.667 45.333 L 241.750 31.083 246.450 31.000 C 249.466 30.947,251.215 30.853,251.329 30.738 C 251.563 30.504,251.487 24.468,251.250 24.389 C 251.143 24.353,251.083 25.477,251.083 27.542 M153.083 26.463 C 152.900 26.501,152.525 26.629,152.250 26.746 C 151.975 26.863,150.720 27.286,149.460 27.687 C 146.662 28.579,146.976 27.190,147.037 38.417 L 147.086 47.417 147.126 38.245 C 147.171 28.067,147.142 28.333,148.222 28.333 C 148.518 28.333,148.907 28.230,149.088 28.104 C 149.269 27.978,149.731 27.822,150.115 27.758 C 150.500 27.693,150.903 27.534,151.011 27.404 C 151.119 27.273,151.446 27.167,151.739 27.167 C 152.031 27.167,152.415 27.057,152.593 26.922 C 152.771 26.787,153.085 26.675,153.292 26.672 L 153.667 26.667 153.667 30.583 L 153.667 34.500 156.986 34.500 C 161.283 34.500,160.833 34.147,160.833 37.515 L 160.833 40.327 157.292 40.372 L 153.750 40.417 153.705 44.233 C 153.668 47.419,153.702 48.113,153.913 48.435 C 154.053 48.648,154.167 48.938,154.167 49.079 C 154.167 49.755,156.583 52.488,157.188 52.496 C 157.337 52.498,157.548 52.607,157.656 52.737 C 157.764 52.867,158.154 53.025,158.523 53.087 C 158.892 53.150,159.394 53.305,159.639 53.433 C 159.883 53.560,160.207 53.665,160.357 53.666 C 160.508 53.666,160.671 53.772,160.721 53.901 C 160.837 54.204,160.709 59.347,160.582 59.474 C 160.396 59.660,157.911 59.486,157.417 59.252 C 157.142 59.122,156.635 58.971,156.292 58.917 C 155.948 58.863,155.667 58.750,155.667 58.667 C 155.667 58.583,155.404 58.466,155.083 58.406 C 154.762 58.345,154.500 58.235,154.500 58.159 C 154.500 58.084,154.331 57.971,154.125 57.908 C 153.393 57.683,150.006 54.651,150.002 54.217 C 150.001 54.107,149.905 53.957,149.788 53.883 C 149.672 53.810,149.483 53.563,149.369 53.333 C 149.256 53.104,148.976 52.586,148.748 52.182 C 148.520 51.778,148.333 51.319,148.333 51.161 C 148.333 51.003,148.231 50.789,148.106 50.686 C 147.981 50.582,147.832 50.095,147.774 49.604 C 147.660 48.632,147.185 47.311,147.173 47.932 C 147.165 48.355,147.750 50.684,147.971 51.110 C 148.058 51.279,148.330 51.829,148.576 52.333 C 149.621 54.483,150.357 55.376,152.465 57.052 C 153.523 57.893,155.249 58.840,156.167 59.083 C 156.396 59.144,156.808 59.290,157.083 59.408 C 157.697 59.673,160.588 60.068,160.827 59.921 C 160.936 59.853,161.000 58.682,161.000 56.732 L 161.000 53.650 160.292 53.329 C 159.902 53.152,159.410 53.006,159.198 53.004 C 157.976 52.992,155.450 51.091,154.724 49.637 C 153.825 47.837,153.821 47.807,153.870 44.083 L 153.917 40.583 157.417 40.500 L 160.917 40.417 160.962 37.479 C 161.016 33.964,161.484 34.339,157.042 34.336 L 153.833 34.333 153.833 30.520 C 153.833 26.510,153.797 26.313,153.083 26.463 M91.000 34.088 C 90.587 34.220,90.074 34.329,89.859 34.331 C 88.805 34.338,86.456 35.638,83.777 37.697 C 82.589 38.611,80.542 41.661,79.939 43.417 C 79.087 45.899,78.993 46.941,79.040 53.452 L 79.083 59.583 82.333 59.583 L 85.583 59.583 85.681 53.333 C 85.785 46.674,85.827 46.310,86.691 44.673 C 87.136 43.829,88.428 42.493,89.417 41.852 C 89.783 41.614,90.121 41.376,90.167 41.322 C 90.319 41.143,92.073 40.611,92.833 40.513 L 93.583 40.417 93.583 37.167 L 93.583 33.917 92.667 33.882 C 92.162 33.864,91.412 33.956,91.000 34.088 M263.667 34.088 C 263.254 34.220,262.741 34.329,262.525 34.331 C 261.688 34.336,259.263 35.578,257.510 36.898 C 254.961 38.818,253.274 41.231,252.215 44.473 C 251.702 46.042,251.387 59.221,251.856 59.517 C 252.112 59.680,257.660 59.723,258.070 59.566 C 258.302 59.476,258.335 58.846,258.345 54.274 C 258.360 47.638,258.452 46.572,259.130 45.167 C 259.716 43.952,261.784 41.667,262.298 41.667 C 262.387 41.667,262.550 41.558,262.660 41.424 C 262.894 41.142,264.419 40.653,265.500 40.514 L 266.250 40.417 266.250 37.167 L 266.250 33.917 265.333 33.882 C 264.829 33.864,264.079 33.956,263.667 34.088 M384.167 34.088 C 383.754 34.220,383.241 34.329,383.025 34.331 C 382.175 34.336,379.765 35.580,377.972 36.938 C 374.721 39.400,372.744 42.826,372.335 46.707 C 372.043 49.476,372.117 59.445,372.430 59.566 C 372.774 59.697,378.226 59.697,378.570 59.566 C 378.802 59.476,378.833 58.856,378.833 54.309 C 378.833 48.837,379.007 46.392,379.470 45.358 C 380.544 42.961,383.672 40.675,386.167 40.466 L 386.750 40.417 386.750 37.167 L 386.750 33.917 385.833 33.882 C 385.329 33.864,384.579 33.956,384.167 34.088 M93.333 37.167 L 93.333 40.333 92.574 40.333 C 91.897 40.333,90.691 40.726,90.000 41.173 C 89.862 41.262,89.597 41.401,89.410 41.483 C 88.902 41.705,86.712 43.927,86.575 44.359 C 86.510 44.566,86.353 44.837,86.228 44.962 C 86.103 45.088,85.998 45.391,85.995 45.637 C 85.992 45.882,85.879 46.229,85.745 46.407 C 85.539 46.678,85.500 47.760,85.500 53.119 L 85.500 59.507 82.375 59.462 L 79.250 59.417 79.197 54.500 C 79.142 49.310,79.458 44.965,79.942 44.255 C 80.066 44.074,80.167 43.727,80.167 43.483 C 80.167 43.240,80.279 42.947,80.417 42.833 C 80.554 42.719,80.667 42.495,80.667 42.335 C 80.667 42.176,80.817 41.854,81.000 41.621 C 81.183 41.388,81.333 41.145,81.333 41.081 C 81.333 40.414,85.630 36.167,86.304 36.167 C 86.389 36.167,86.553 36.054,86.667 35.917 C 86.781 35.779,87.010 35.667,87.175 35.667 C 87.341 35.667,87.589 35.554,87.726 35.417 C 87.864 35.279,88.076 35.167,88.199 35.167 C 88.321 35.167,88.701 35.017,89.044 34.833 C 89.386 34.650,89.984 34.499,90.374 34.498 C 90.764 34.496,91.271 34.391,91.500 34.264 C 91.729 34.137,92.235 34.025,92.625 34.016 L 93.333 34.000 93.333 37.167 M266.167 37.167 L 266.167 40.333 265.317 40.333 C 264.411 40.333,263.680 40.586,262.102 41.445 C 261.439 41.806,259.500 43.770,259.500 44.080 C 259.500 44.219,259.432 44.333,259.348 44.333 C 258.496 44.333,258.121 47.019,258.051 53.625 L 257.988 59.500 254.994 59.500 L 252.000 59.500 252.000 52.620 C 252.000 47.112,252.045 45.675,252.225 45.412 C 252.349 45.231,252.502 44.755,252.564 44.354 C 252.626 43.953,252.787 43.467,252.922 43.275 C 253.057 43.083,253.167 42.755,253.167 42.546 C 253.167 42.337,253.234 42.167,253.317 42.167 C 253.400 42.167,253.551 41.960,253.654 41.708 C 253.953 40.974,254.382 40.306,254.875 39.808 C 255.127 39.553,255.333 39.303,255.333 39.251 C 255.333 39.037,257.756 36.833,257.991 36.833 C 258.059 36.833,258.251 36.683,258.417 36.500 C 258.583 36.317,258.822 36.167,258.948 36.167 C 259.074 36.167,259.220 36.054,259.273 35.917 C 259.326 35.779,259.474 35.667,259.602 35.667 C 259.730 35.667,260.114 35.517,260.456 35.333 C 260.799 35.150,261.192 34.998,261.331 34.995 C 261.470 34.992,261.729 34.879,261.907 34.745 C 262.085 34.610,262.572 34.499,262.990 34.498 C 263.408 34.496,263.938 34.391,264.167 34.264 C 264.396 34.137,264.940 34.025,265.375 34.016 L 266.167 34.000 266.167 37.167 M386.500 37.167 L 386.500 40.333 385.734 40.333 C 385.312 40.333,384.731 40.435,384.442 40.560 C 384.153 40.685,383.710 40.870,383.458 40.973 C 383.206 41.076,383.000 41.236,383.000 41.330 C 383.000 41.423,382.864 41.500,382.697 41.500 C 381.835 41.500,379.005 44.974,378.997 46.041 C 378.996 46.248,378.887 46.717,378.755 47.083 C 378.563 47.615,378.513 48.943,378.507 53.625 L 378.500 59.500 375.492 59.500 L 372.483 59.500 372.533 52.458 C 372.578 46.120,372.612 45.367,372.874 44.917 C 373.034 44.642,373.165 44.173,373.166 43.875 C 373.166 43.577,373.239 43.333,373.327 43.333 C 373.415 43.333,373.570 43.052,373.670 42.708 C 373.771 42.365,373.998 41.858,374.175 41.583 C 374.352 41.308,374.591 40.898,374.707 40.672 C 375.114 39.873,377.788 37.117,378.460 36.802 C 378.952 36.572,379.833 35.940,379.833 35.817 C 379.833 35.734,379.969 35.667,380.135 35.667 C 380.301 35.667,380.582 35.557,380.760 35.422 C 380.938 35.287,381.197 35.175,381.336 35.172 C 381.475 35.169,381.868 35.017,382.210 34.833 C 382.552 34.650,383.151 34.499,383.541 34.498 C 383.931 34.496,384.438 34.391,384.667 34.264 C 384.896 34.137,385.402 34.025,385.792 34.016 L 386.500 34.000 386.500 37.167 M59.333 34.353 C 58.829 34.434,58.267 34.570,58.083 34.655 C 55.379 35.915,54.583 36.348,53.650 37.068 C 53.045 37.535,52.145 38.463,51.650 39.130 C 51.155 39.798,50.662 40.443,50.554 40.564 C 50.317 40.831,49.918 41.762,49.510 43.000 C 47.750 48.341,49.761 54.402,54.333 57.536 C 57.599 59.774,62.412 60.505,65.894 59.290 C 67.483 58.736,67.403 58.738,67.638 59.254 L 67.829 59.674 71.040 59.629 L 74.250 59.583 74.250 46.917 L 74.250 34.250 71.000 34.250 L 67.750 34.250 67.692 34.667 C 67.609 35.266,67.355 35.523,67.021 35.345 C 65.287 34.417,61.766 33.962,59.333 34.353 M277.333 34.353 C 276.829 34.434,276.267 34.570,276.083 34.655 C 273.322 35.941,272.588 36.342,271.667 37.063 C 270.554 37.935,270.513 37.975,269.876 38.778 C 268.865 40.053,268.337 40.834,268.087 41.430 C 264.851 49.127,268.392 56.937,276.250 59.432 C 277.943 59.970,282.170 59.892,283.894 59.290 C 285.483 58.736,285.403 58.738,285.638 59.254 L 285.829 59.674 289.040 59.629 L 292.250 59.583 292.250 46.917 L 292.250 34.250 289.000 34.250 L 285.750 34.250 285.696 34.718 C 285.620 35.386,285.351 35.417,283.916 34.922 C 281.950 34.243,279.393 34.022,277.333 34.353 M306.167 34.353 C 305.662 34.434,305.100 34.568,304.917 34.650 C 301.362 36.253,299.942 37.231,298.448 39.108 C 294.984 43.459,294.775 49.102,297.883 54.333 C 300.895 59.403,308.418 61.240,314.468 58.384 C 316.039 57.642,318.516 55.582,318.837 54.750 C 318.963 54.423,318.317 53.500,317.962 53.500 C 317.836 53.500,316.884 52.886,316.667 52.665 C 316.348 52.340,313.919 50.833,313.715 50.833 C 313.575 50.833,313.151 51.144,312.772 51.523 C 309.067 55.234,302.509 52.439,302.502 47.146 C 302.494 41.427,308.689 38.913,313.064 42.859 C 313.655 43.393,313.682 43.384,315.495 42.080 C 316.277 41.517,317.348 40.770,317.875 40.421 C 318.406 40.070,318.833 39.662,318.833 39.508 C 318.833 38.513,314.647 35.344,312.750 34.903 C 312.475 34.840,312.168 34.723,312.068 34.645 C 311.598 34.277,307.806 34.090,306.167 34.353 M128.750 34.404 C 128.658 34.437,128.133 34.590,127.583 34.744 C 123.819 35.798,121.110 38.048,119.352 41.583 C 117.505 45.296,117.834 50.518,120.125 53.871 C 120.423 54.307,120.667 54.702,120.667 54.748 C 120.667 55.161,123.727 57.617,125.192 58.381 C 127.408 59.535,132.862 60.174,133.854 59.395 C 133.980 59.296,134.383 59.136,134.750 59.040 C 136.876 58.479,139.833 56.650,139.833 55.896 C 139.833 55.636,135.703 51.502,135.442 51.501 C 135.365 51.500,135.069 51.666,134.785 51.868 C 132.699 53.353,130.245 53.580,128.019 52.494 C 127.178 52.083,125.599 50.578,125.751 50.332 C 125.816 50.226,129.015 50.167,134.673 50.167 L 143.494 50.167 143.602 49.734 C 143.919 48.471,143.347 43.788,142.736 42.641 C 142.606 42.398,142.500 42.111,142.500 42.003 C 142.500 41.535,140.982 39.310,139.857 38.129 C 138.310 36.505,136.724 35.558,134.167 34.731 C 133.332 34.462,129.270 34.216,128.750 34.404 M354.083 34.496 C 353.808 34.576,353.199 34.750,352.729 34.883 C 350.975 35.381,348.855 36.594,347.866 37.667 C 347.654 37.896,347.273 38.308,347.019 38.583 C 343.795 42.071,342.839 47.351,344.640 51.719 C 344.746 51.977,344.833 52.227,344.833 52.273 C 344.833 53.013,347.304 55.936,349.036 57.246 C 351.300 58.957,353.461 59.647,356.597 59.659 C 358.435 59.667,359.786 59.400,361.275 58.735 C 361.564 58.606,361.890 58.500,361.999 58.500 C 362.525 58.500,365.502 56.331,365.497 55.951 C 365.494 55.666,365.460 55.628,363.231 53.458 C 361.077 51.362,360.966 51.301,360.332 51.875 C 358.039 53.947,351.896 53.083,351.628 50.651 L 351.583 50.250 360.333 50.163 C 365.146 50.115,369.102 50.059,369.125 50.038 C 369.404 49.784,368.985 43.752,368.667 43.434 C 368.575 43.342,368.500 43.142,368.500 42.989 C 368.500 42.089,366.333 38.765,364.836 37.370 C 363.819 36.422,361.850 35.384,359.833 34.731 C 358.810 34.401,354.959 34.243,354.083 34.496 M64.467 34.726 C 64.714 34.851,65.179 35.001,65.500 35.060 C 65.821 35.119,66.328 35.298,66.627 35.457 C 67.285 35.805,67.722 35.613,67.803 34.942 L 67.855 34.500 71.011 34.500 L 74.167 34.500 74.167 47.000 L 74.167 59.500 71.021 59.500 L 67.875 59.500 67.775 59.000 C 67.679 58.518,66.833 58.212,66.833 58.659 C 66.833 58.747,66.552 58.864,66.208 58.919 C 65.865 58.975,65.384 59.128,65.141 59.260 C 64.497 59.609,59.058 59.597,58.593 59.245 C 58.415 59.110,58.063 59.000,57.810 59.000 C 57.383 59.000,55.950 58.349,55.592 57.991 C 55.505 57.904,55.298 57.833,55.133 57.833 C 54.968 57.833,54.833 57.769,54.833 57.689 C 54.833 57.610,54.515 57.329,54.125 57.064 C 53.320 56.517,51.948 55.170,51.535 54.520 C 51.383 54.280,51.162 54.023,51.046 53.950 C 50.929 53.877,50.833 53.680,50.833 53.512 C 50.833 53.345,50.721 53.114,50.583 53.000 C 50.446 52.886,50.333 52.668,50.333 52.517 C 50.333 52.365,50.227 52.089,50.097 51.904 C 49.967 51.718,49.807 51.277,49.740 50.924 C 49.674 50.570,49.518 50.087,49.394 49.849 C 49.078 49.243,49.077 44.828,49.393 44.200 C 49.517 43.953,49.668 43.487,49.727 43.167 C 49.786 42.846,49.942 42.358,50.073 42.083 C 50.205 41.808,50.355 41.471,50.408 41.333 C 50.705 40.557,52.623 38.101,53.198 37.760 C 53.444 37.613,53.819 37.345,54.031 37.164 C 55.051 36.292,55.239 36.167,55.531 36.167 C 55.703 36.167,55.887 36.054,55.940 35.917 C 55.992 35.779,56.206 35.667,56.414 35.667 C 56.622 35.667,56.884 35.556,56.996 35.421 C 57.108 35.286,57.474 35.125,57.808 35.064 C 58.143 35.003,58.565 34.851,58.745 34.726 C 59.209 34.407,63.831 34.407,64.467 34.726 M133.133 34.727 C 133.381 34.852,133.912 35.004,134.313 35.066 C 134.714 35.127,135.199 35.287,135.392 35.422 C 135.584 35.557,135.865 35.667,136.017 35.667 C 136.168 35.667,136.386 35.779,136.500 35.917 C 136.614 36.054,136.812 36.167,136.939 36.167 C 137.453 36.167,140.167 38.420,140.167 38.847 C 140.167 38.931,140.231 39.000,140.310 39.000 C 140.503 39.000,141.833 40.952,141.833 41.235 C 141.833 41.358,141.946 41.553,142.083 41.667 C 142.221 41.781,142.333 42.036,142.333 42.233 C 142.333 42.431,142.443 42.750,142.578 42.942 C 142.713 43.134,142.867 43.619,142.922 44.021 C 142.977 44.422,143.134 45.200,143.271 45.750 C 143.431 46.391,143.501 47.318,143.468 48.333 L 143.417 49.917 134.502 50.000 C 126.162 50.078,125.584 50.102,125.531 50.377 C 125.465 50.724,126.427 52.000,126.756 52.000 C 126.881 52.000,127.043 52.094,127.117 52.208 C 127.293 52.484,128.702 53.166,129.102 53.169 C 129.275 53.170,129.738 53.283,130.131 53.420 C 130.849 53.671,132.080 53.608,132.264 53.311 C 132.313 53.232,132.495 53.167,132.668 53.167 C 132.986 53.167,134.129 52.612,134.848 52.108 C 135.064 51.957,135.318 51.834,135.412 51.835 C 135.651 51.838,139.500 55.582,139.500 55.812 C 139.500 56.158,137.675 57.713,137.042 57.908 C 136.835 57.971,136.667 58.092,136.667 58.178 C 136.667 58.263,136.460 58.336,136.208 58.339 C 135.956 58.342,135.450 58.490,135.083 58.667 C 134.717 58.844,134.229 58.994,134.000 59.000 C 133.771 59.007,133.396 59.119,133.167 59.250 C 132.577 59.587,129.416 59.587,128.609 59.250 C 128.280 59.112,127.783 59.000,127.505 59.000 C 127.226 59.000,126.719 58.850,126.377 58.667 C 126.035 58.483,125.631 58.333,125.479 58.333 C 125.327 58.333,125.159 58.221,125.106 58.083 C 125.054 57.946,124.907 57.833,124.781 57.833 C 124.654 57.833,124.397 57.702,124.208 57.542 C 124.019 57.381,123.696 57.137,123.489 57.000 C 122.668 56.453,121.392 55.249,120.951 54.606 C 120.694 54.232,120.432 53.887,120.367 53.838 C 120.124 53.655,118.992 51.235,118.996 50.907 C 118.998 50.718,118.890 50.418,118.755 50.240 C 118.399 49.769,118.399 44.231,118.755 43.760 C 118.890 43.582,119.000 43.256,119.000 43.036 C 119.000 42.816,119.150 42.445,119.333 42.212 C 119.517 41.979,119.667 41.648,119.667 41.478 C 119.667 41.307,119.740 41.167,119.830 41.167 C 119.920 41.167,120.041 40.976,120.100 40.744 C 120.158 40.511,120.441 40.049,120.728 39.717 C 121.015 39.385,121.581 38.731,121.985 38.265 C 122.753 37.379,124.339 36.167,124.731 36.167 C 124.857 36.167,125.053 36.054,125.167 35.917 C 125.281 35.779,125.498 35.667,125.650 35.667 C 125.802 35.667,126.083 35.557,126.275 35.422 C 126.467 35.287,126.953 35.127,127.354 35.066 C 127.755 35.004,128.271 34.855,128.500 34.734 C 129.081 34.426,132.527 34.421,133.133 34.727 M282.467 34.726 C 282.714 34.851,283.179 35.001,283.500 35.060 C 283.821 35.119,284.328 35.298,284.627 35.457 C 285.285 35.805,285.722 35.613,285.803 34.942 L 285.855 34.500 289.011 34.500 L 292.167 34.500 292.167 47.000 L 292.167 59.500 289.021 59.500 L 285.875 59.500 285.775 59.000 C 285.679 58.518,284.833 58.212,284.833 58.659 C 284.833 58.747,284.552 58.864,284.208 58.919 C 283.865 58.975,283.384 59.128,283.141 59.260 C 282.497 59.609,277.058 59.597,276.593 59.245 C 276.415 59.110,276.066 59.000,275.817 59.000 C 274.861 59.000,272.032 57.218,270.500 55.650 C 269.487 54.614,269.275 54.333,268.916 53.553 C 268.782 53.261,268.596 52.976,268.503 52.918 C 268.409 52.861,268.333 52.673,268.333 52.502 C 268.333 52.331,268.221 52.078,268.083 51.940 C 267.946 51.803,267.833 51.551,267.833 51.381 C 267.833 51.211,267.677 50.626,267.485 50.082 C 267.088 48.950,267.057 44.451,267.443 43.984 C 267.550 43.855,267.692 43.450,267.759 43.083 C 267.826 42.717,267.982 42.269,268.107 42.088 C 268.231 41.907,268.333 41.663,268.333 41.545 C 268.333 41.145,270.602 38.065,271.000 37.924 C 271.137 37.875,271.529 37.591,271.870 37.293 C 272.928 36.366,273.224 36.167,273.539 36.167 C 273.707 36.167,273.887 36.054,273.940 35.917 C 273.992 35.779,274.206 35.667,274.414 35.667 C 274.622 35.667,274.884 35.556,274.996 35.421 C 275.108 35.286,275.474 35.125,275.808 35.064 C 276.143 35.003,276.565 34.851,276.745 34.726 C 277.209 34.407,281.831 34.407,282.467 34.726 M311.394 34.751 C 311.657 34.888,312.023 35.000,312.209 35.000 C 312.513 35.000,313.689 35.473,314.333 35.854 C 314.471 35.936,314.696 36.053,314.833 36.116 C 314.971 36.178,315.439 36.478,315.873 36.781 C 316.308 37.085,316.739 37.333,316.832 37.333 C 316.924 37.333,317.000 37.404,317.000 37.490 C 317.000 37.576,317.375 38.038,317.833 38.516 C 318.744 39.466,318.812 39.625,318.375 39.781 C 318.215 39.838,317.771 40.136,317.389 40.442 C 317.007 40.749,316.613 41.000,316.514 41.000 C 316.414 41.000,316.333 41.063,316.333 41.140 C 316.333 41.217,316.165 41.366,315.958 41.470 C 315.752 41.575,315.138 41.984,314.593 42.379 L 313.602 43.098 313.063 42.591 C 312.324 41.894,311.796 41.500,311.604 41.500 C 311.516 41.500,311.321 41.389,311.171 41.254 C 310.499 40.646,306.560 40.644,305.833 41.251 C 305.696 41.366,305.422 41.510,305.224 41.570 C 304.699 41.730,303.000 43.533,303.000 43.930 C 303.000 44.047,302.878 44.264,302.730 44.413 C 302.070 45.073,302.113 48.420,302.799 49.828 C 303.312 50.881,304.630 52.280,305.343 52.528 C 305.613 52.622,305.833 52.764,305.833 52.842 C 305.833 52.921,306.115 53.036,306.458 53.098 C 306.802 53.159,307.158 53.265,307.250 53.332 C 307.622 53.603,308.544 53.648,309.212 53.428 C 309.600 53.301,310.231 53.146,310.615 53.085 C 311.000 53.024,311.403 52.867,311.511 52.737 C 311.619 52.607,311.813 52.500,311.942 52.500 C 312.071 52.500,312.220 52.387,312.273 52.250 C 312.326 52.112,312.458 52.000,312.567 52.000 C 312.676 52.000,312.950 51.784,313.174 51.520 L 313.583 51.040 314.167 51.355 C 314.935 51.770,315.352 52.037,315.630 52.292 C 315.755 52.406,315.921 52.500,316.000 52.500 C 316.079 52.500,316.244 52.594,316.368 52.708 C 316.795 53.105,317.654 53.667,317.832 53.667 C 317.930 53.667,318.054 53.779,318.106 53.917 C 318.159 54.054,318.307 54.167,318.434 54.167 C 318.747 54.167,318.732 54.819,318.417 54.940 C 318.279 54.992,318.167 55.097,318.167 55.171 C 318.167 55.363,316.854 56.667,316.660 56.667 C 316.572 56.667,316.500 56.728,316.500 56.804 C 316.500 56.979,315.202 57.833,314.935 57.833 C 314.824 57.833,314.662 57.904,314.575 57.991 C 314.217 58.349,312.784 59.000,312.356 59.000 C 312.104 59.000,311.751 59.110,311.574 59.245 C 311.103 59.600,305.897 59.600,305.426 59.245 C 305.249 59.110,304.874 58.995,304.593 58.989 C 304.313 58.983,303.708 58.758,303.250 58.490 C 302.792 58.221,302.304 57.951,302.167 57.888 C 301.191 57.447,298.167 54.673,298.167 54.219 C 298.167 54.093,298.054 53.946,297.917 53.894 C 297.779 53.841,297.667 53.661,297.667 53.494 C 297.667 53.327,297.564 53.088,297.439 52.962 C 297.313 52.837,297.153 52.550,297.083 52.326 C 297.013 52.101,296.853 51.769,296.728 51.588 C 296.602 51.407,296.500 51.032,296.499 50.755 C 296.498 50.477,296.386 50.035,296.249 49.773 C 295.896 49.095,295.901 44.729,296.255 44.260 C 296.390 44.082,296.502 43.669,296.505 43.343 C 296.508 43.017,296.621 42.604,296.755 42.426 C 296.890 42.249,297.000 41.979,297.000 41.827 C 297.000 41.675,297.150 41.378,297.333 41.167 C 297.517 40.955,297.667 40.689,297.667 40.574 C 297.667 40.232,300.304 37.333,300.615 37.333 C 300.694 37.333,300.883 37.202,301.035 37.042 C 301.460 36.591,301.790 36.343,302.204 36.165 C 302.413 36.075,302.696 35.934,302.833 35.853 C 303.410 35.514,304.638 35.000,304.874 35.000 C 305.014 35.000,305.343 34.888,305.606 34.751 C 306.288 34.396,310.712 34.396,311.394 34.751 M358.755 34.725 C 358.935 34.849,359.428 34.996,359.850 35.052 C 360.521 35.141,360.917 35.288,362.000 35.853 C 362.137 35.925,362.587 36.152,363.000 36.358 C 364.174 36.945,366.952 39.849,367.241 40.792 C 367.304 40.998,367.426 41.167,367.511 41.167 C 367.597 41.167,367.667 41.279,367.667 41.417 C 367.667 41.555,367.817 41.948,368.000 42.290 C 368.183 42.632,368.336 43.100,368.339 43.331 C 368.342 43.561,368.454 43.896,368.589 44.074 C 368.781 44.328,368.833 44.993,368.833 47.199 L 368.833 50.000 360.117 50.000 C 353.838 50.000,351.347 50.053,351.211 50.189 C 350.635 50.765,353.531 53.167,354.803 53.167 C 354.980 53.167,355.402 53.282,355.738 53.423 C 356.337 53.672,357.360 53.626,357.750 53.330 C 357.842 53.261,358.231 53.153,358.615 53.089 C 359.000 53.026,359.403 52.867,359.511 52.737 C 359.619 52.607,359.780 52.500,359.869 52.500 C 359.958 52.500,360.221 52.350,360.455 52.167 C 361.054 51.695,360.979 51.653,363.011 53.625 C 365.179 55.729,365.291 55.889,364.881 56.297 C 364.240 56.936,363.015 57.833,362.784 57.833 C 362.650 57.833,362.447 57.946,362.333 58.083 C 362.219 58.221,361.965 58.333,361.769 58.333 C 361.572 58.333,361.132 58.483,360.790 58.667 C 360.448 58.850,359.961 59.003,359.709 59.006 C 359.457 59.009,359.063 59.119,358.833 59.250 C 358.539 59.419,357.856 59.488,356.500 59.488 C 355.144 59.488,354.461 59.419,354.167 59.250 C 353.938 59.119,353.440 59.009,353.062 59.006 C 352.660 59.002,352.288 58.896,352.167 58.750 C 352.053 58.612,351.883 58.500,351.790 58.500 C 351.580 58.500,350.116 57.794,349.996 57.635 C 349.885 57.488,348.678 56.667,348.572 56.667 C 348.414 56.667,346.726 54.896,346.620 54.618 C 346.560 54.461,346.433 54.333,346.339 54.333 C 346.244 54.333,346.167 54.220,346.167 54.082 C 346.167 53.943,346.017 53.702,345.833 53.545 C 345.650 53.388,345.500 53.135,345.500 52.983 C 345.500 52.832,345.387 52.614,345.250 52.500 C 345.113 52.386,344.997 52.170,344.994 52.021 C 344.991 51.872,344.844 51.450,344.667 51.083 C 344.490 50.717,344.342 50.145,344.339 49.812 C 344.336 49.479,344.221 48.938,344.083 48.609 C 343.795 47.919,343.750 45.968,344.011 45.480 C 344.108 45.298,344.262 44.692,344.352 44.133 C 344.442 43.575,344.624 42.962,344.758 42.772 C 344.891 42.582,345.000 42.302,345.000 42.150 C 345.000 41.998,345.113 41.781,345.250 41.667 C 345.387 41.553,345.500 41.358,345.500 41.235 C 345.500 40.952,346.830 39.000,347.023 39.000 C 347.102 39.000,347.167 38.931,347.167 38.847 C 347.167 38.420,349.880 36.167,350.395 36.167 C 350.522 36.167,350.719 36.054,350.833 35.917 C 350.947 35.779,351.165 35.667,351.317 35.667 C 351.468 35.667,351.750 35.557,351.942 35.422 C 352.134 35.287,352.619 35.127,353.021 35.066 C 353.422 35.004,353.938 34.855,354.167 34.734 C 354.751 34.425,358.306 34.418,358.755 34.725 M60.715 40.833 C 59.871 40.971,59.087 41.177,58.973 41.292 C 58.860 41.406,58.650 41.500,58.507 41.500 C 58.140 41.500,56.167 43.594,56.167 43.983 C 56.167 44.161,56.077 44.335,55.968 44.372 C 55.701 44.461,55.172 46.992,55.332 47.416 C 55.402 47.600,55.512 48.144,55.578 48.625 C 55.644 49.106,55.767 49.542,55.851 49.595 C 55.936 49.647,56.108 49.937,56.235 50.239 C 56.694 51.339,59.033 53.167,59.982 53.167 C 60.139 53.167,60.352 53.252,60.456 53.356 C 60.714 53.614,62.443 53.624,62.697 53.370 C 62.809 53.258,63.166 53.166,63.492 53.164 C 63.817 53.163,64.271 53.053,64.500 52.921 C 64.729 52.788,65.029 52.625,65.167 52.558 C 66.119 52.094,67.833 49.683,67.833 48.807 C 67.833 48.583,67.920 48.313,68.027 48.206 C 68.272 47.962,68.264 46.031,68.017 45.784 C 67.916 45.683,67.833 45.407,67.833 45.171 C 67.833 44.299,65.539 41.514,64.812 41.504 C 64.663 41.502,64.447 41.387,64.333 41.250 C 64.219 41.112,63.966 40.997,63.771 40.993 C 63.576 40.989,63.154 40.895,62.833 40.784 C 62.364 40.622,61.950 40.632,60.715 40.833 M129.935 40.637 C 129.879 40.728,129.462 40.853,129.008 40.916 C 128.555 40.978,128.095 41.135,127.988 41.264 C 127.880 41.394,127.730 41.500,127.654 41.500 C 127.339 41.500,126.286 42.356,125.898 42.929 C 125.069 44.149,125.303 44.202,131.266 44.134 C 136.730 44.073,137.117 43.910,135.359 42.417 C 135.143 42.233,134.845 41.952,134.696 41.792 C 134.548 41.631,134.308 41.500,134.163 41.500 C 134.018 41.500,133.807 41.407,133.693 41.293 C 133.244 40.844,130.142 40.302,129.935 40.637 M279.638 40.663 C 279.393 40.737,278.740 40.850,278.187 40.914 C 277.634 40.978,277.094 41.137,276.987 41.265 C 276.880 41.394,276.675 41.500,276.530 41.500 C 276.175 41.500,274.167 43.621,274.167 43.997 C 274.167 44.162,274.054 44.341,273.917 44.394 C 273.779 44.446,273.667 44.654,273.667 44.855 C 273.667 45.056,273.540 45.621,273.386 46.110 C 273.123 46.944,273.123 47.056,273.386 47.890 C 273.540 48.379,273.667 48.937,273.667 49.130 C 273.667 49.323,273.743 49.527,273.836 49.585 C 273.929 49.642,274.108 49.928,274.233 50.220 C 274.507 50.857,275.510 52.000,275.796 52.000 C 275.908 52.000,276.000 52.064,276.000 52.143 C 276.000 52.332,277.617 53.167,277.982 53.167 C 278.139 53.167,278.352 53.252,278.456 53.356 C 278.714 53.614,280.443 53.624,280.697 53.370 C 280.809 53.258,281.166 53.166,281.492 53.164 C 281.817 53.163,282.271 53.053,282.500 52.921 C 282.729 52.788,283.029 52.624,283.167 52.557 C 283.636 52.326,285.046 50.765,285.270 50.227 C 285.394 49.931,285.571 49.642,285.664 49.585 C 285.757 49.527,285.833 49.237,285.833 48.940 C 285.833 48.643,285.919 48.314,286.024 48.210 C 286.129 48.105,286.214 47.598,286.214 47.083 C 286.214 46.569,286.129 46.062,286.024 45.957 C 285.919 45.852,285.833 45.536,285.833 45.255 C 285.833 44.316,283.586 41.514,282.825 41.504 C 282.683 41.502,282.474 41.407,282.360 41.293 C 282.246 41.180,281.800 41.002,281.368 40.899 C 280.937 40.796,280.471 40.671,280.333 40.620 C 280.196 40.570,279.883 40.589,279.638 40.663 M355.167 40.760 C 354.846 40.882,354.424 40.985,354.229 40.991 C 354.034 40.996,353.781 41.112,353.667 41.250 C 353.553 41.387,353.335 41.500,353.183 41.500 C 353.032 41.500,352.786 41.631,352.637 41.792 C 352.489 41.952,352.190 42.233,351.975 42.417 C 350.145 43.971,350.635 44.167,356.360 44.167 C 360.730 44.167,361.833 44.068,361.833 43.678 C 361.833 43.154,360.197 41.500,359.680 41.500 C 359.603 41.500,359.453 41.394,359.345 41.264 C 359.238 41.135,358.779 40.978,358.325 40.916 C 357.872 40.853,357.458 40.734,357.407 40.651 C 357.272 40.433,355.849 40.502,355.167 40.760 M133.590 41.508 C 134.964 42.171,136.023 43.224,135.755 43.659 C 135.684 43.774,133.969 43.833,130.740 43.833 C 125.187 43.833,125.294 43.864,126.546 42.612 C 128.326 40.831,131.243 40.374,133.590 41.508 M357.680 41.002 C 358.914 41.236,359.947 41.772,360.787 42.612 C 362.042 43.866,362.156 43.833,356.500 43.833 C 350.856 43.833,350.836 43.828,352.086 42.614 C 353.525 41.216,355.621 40.612,357.680 41.002 M64.423 41.544 C 68.179 43.436,69.007 48.541,66.029 51.456 C 65.108 52.357,63.943 53.000,63.231 53.000 C 62.965 53.000,62.507 53.069,62.213 53.153 C 58.283 54.281,54.207 48.399,56.158 44.417 C 57.609 41.458,61.539 40.091,64.423 41.544 M282.440 41.552 C 286.931 43.812,286.946 50.390,282.465 52.625 C 282.052 52.831,281.496 53.000,281.231 53.000 C 280.965 53.000,280.507 53.069,280.213 53.153 C 276.283 54.281,272.207 48.399,274.158 44.417 C 275.610 41.455,279.544 40.094,282.440 41.552 " stroke="none" fill="#5b8cc3" fill-rule="evenodd"></path></g></svg>