<svg id="svg" version="1.1" xmlns="http://www.w3.org/2000/svg" xmlns:xlink="http://www.w3.org/1999/xlink" width="400" height="82.99999999999999" viewBox="0, 0, 400,82.99999999999999"><g id="svgg"><path id="path0" d="M96.444 23.111 C 96.383 23.172,96.333 31.373,96.333 41.335 L 96.333 59.448 99.267 59.558 C 103.490 59.718,103.282 59.923,103.314 55.570 L 103.333 52.890 104.566 51.695 C 106.105 50.202,105.876 50.134,107.414 52.542 C 108.131 53.665,109.182 55.296,109.750 56.167 C 110.317 57.038,110.999 58.105,111.265 58.540 C 111.862 59.513,111.824 59.499,114.165 59.617 C 116.970 59.757,119.668 59.549,119.663 59.192 C 119.657 58.793,119.018 57.715,116.601 54.028 C 115.419 52.225,114.134 50.262,113.746 49.667 C 113.358 49.071,112.581 47.885,112.020 47.031 C 110.847 45.246,110.849 45.255,111.458 44.465 C 111.816 44.002,117.778 37.362,118.162 37.000 C 121.058 34.267,120.793 34.000,115.179 34.000 L 111.905 34.000 111.064 34.875 C 110.602 35.356,109.292 36.797,108.153 38.076 C 107.015 39.356,105.467 41.043,104.715 41.826 L 103.346 43.250 103.320 41.083 C 103.306 39.892,103.277 38.842,103.256 38.750 C 103.235 38.658,103.206 35.077,103.192 30.792 L 103.167 23.000 99.861 23.000 C 98.043 23.000,96.506 23.050,96.444 23.111 M321.943 25.125 C 321.694 30.006,321.931 59.154,322.222 59.445 C 322.392 59.614,328.134 59.631,328.542 59.464 C 328.805 59.356,328.833 59.041,328.833 56.275 L 328.833 53.206 329.967 51.895 C 331.543 50.072,331.473 50.045,333.523 53.290 C 333.856 53.818,334.924 55.469,335.896 56.958 L 337.663 59.667 340.390 59.667 C 344.418 59.667,345.168 59.565,345.163 59.018 C 345.159 58.567,343.851 56.472,338.205 47.879 C 337.263 46.445,336.513 45.217,336.538 45.150 C 336.574 45.052,340.135 41.026,341.610 39.415 C 344.016 36.787,345.833 34.655,345.833 34.460 C 345.833 34.146,344.104 34.002,340.310 34.001 L 337.537 34.000 334.310 37.539 C 329.766 42.522,329.207 43.096,329.053 42.942 C 328.978 42.867,328.891 38.349,328.859 32.903 L 328.801 23.000 325.426 23.000 L 322.051 23.000 321.943 25.125 M9.667 41.816 L 9.667 59.465 11.042 59.527 C 11.798 59.562,13.398 59.561,14.598 59.526 L 16.780 59.463 16.890 53.106 C 16.950 49.610,17.005 45.362,17.011 43.667 C 17.028 39.485,17.022 39.492,18.448 41.923 C 20.336 45.146,20.833 46.014,20.833 46.090 C 20.833 46.149,21.890 47.918,24.533 52.282 C 24.974 53.010,25.715 53.223,27.478 53.128 C 29.535 53.018,29.625 52.952,31.015 50.520 C 32.433 48.038,32.689 47.599,35.240 43.295 C 36.312 41.486,37.247 39.970,37.318 39.926 C 37.534 39.793,37.667 44.464,37.667 52.172 L 37.667 59.457 40.375 59.530 C 44.288 59.635,44.438 59.611,44.562 58.859 C 44.699 58.035,44.695 27.051,44.558 25.435 L 44.450 24.153 41.314 24.178 L 38.178 24.203 37.695 24.977 C 37.430 25.402,36.966 26.200,36.665 26.750 C 36.363 27.300,35.759 28.350,35.322 29.083 C 34.886 29.817,34.084 31.204,33.540 32.167 C 32.697 33.660,28.703 40.621,27.731 42.291 C 27.558 42.588,27.363 42.832,27.298 42.832 C 27.105 42.834,25.961 41.055,24.835 39.000 C 24.257 37.946,23.281 36.221,22.667 35.167 C 22.052 34.112,20.515 31.450,19.252 29.250 C 17.989 27.050,16.774 25.006,16.553 24.708 L 16.150 24.167 12.908 24.167 L 9.667 24.167 9.667 41.816 M224.911 24.692 C 224.791 25.241,224.968 30.688,225.112 30.833 C 225.157 30.879,227.287 30.941,229.846 30.970 L 234.498 31.024 234.541 45.220 L 234.583 59.417 235.750 59.504 C 236.392 59.553,237.985 59.562,239.292 59.525 L 241.667 59.458 241.667 55.354 C 241.667 53.097,241.717 46.704,241.777 41.148 L 241.887 31.047 246.545 30.963 C 250.265 30.896,251.232 30.832,251.349 30.648 C 251.512 30.389,251.557 24.843,251.399 24.430 C 251.308 24.193,249.986 24.167,238.162 24.167 L 225.026 24.167 224.911 24.692 M152.000 26.579 C 151.404 26.795,150.142 27.208,149.195 27.497 C 147.078 28.143,147.045 28.197,146.906 31.284 C 146.729 35.187,147.101 48.438,147.419 49.583 C 148.999 55.266,154.646 59.833,160.092 59.833 L 161.000 59.833 161.035 58.292 C 161.157 52.838,161.241 53.178,159.667 52.745 C 157.478 52.144,155.515 50.638,154.565 48.832 L 154.083 47.917 154.030 44.208 L 153.977 40.500 157.225 40.500 C 161.442 40.500,161.000 40.861,161.000 37.419 C 161.000 33.785,161.346 34.098,157.245 34.032 L 154.040 33.981 153.925 30.365 C 153.774 25.589,153.922 25.880,152.000 26.579 M90.167 33.941 C 87.134 34.589,83.416 37.182,81.600 39.915 C 79.203 43.523,79.003 44.548,79.001 53.208 L 79.000 59.500 82.307 59.500 L 85.613 59.500 85.723 55.723 C 85.784 53.646,85.835 51.077,85.837 50.015 C 85.846 44.678,88.070 41.432,92.254 40.644 C 92.802 40.541,93.344 40.431,93.458 40.400 C 93.616 40.357,93.667 39.535,93.667 37.005 L 93.667 33.667 92.458 33.688 C 91.794 33.700,90.763 33.814,90.167 33.941 M262.833 33.941 C 258.484 34.870,253.878 39.092,252.341 43.561 C 251.747 45.288,251.215 58.932,251.722 59.443 C 251.926 59.649,257.946 59.620,258.155 59.412 C 258.262 59.304,258.359 57.127,258.414 53.578 C 258.509 47.435,258.612 46.372,259.240 45.088 C 259.663 44.224,261.882 41.667,262.209 41.667 C 262.309 41.667,262.509 41.564,262.654 41.438 C 262.992 41.144,264.449 40.670,265.461 40.526 L 266.250 40.413 266.295 37.040 L 266.340 33.667 265.128 33.688 C 264.462 33.700,263.429 33.814,262.833 33.941 M383.333 33.943 C 378.553 34.973,373.911 39.502,372.598 44.417 C 372.007 46.628,371.789 58.856,372.331 59.398 C 372.562 59.628,377.155 59.747,378.083 59.546 L 378.750 59.402 378.858 53.810 C 378.978 47.635,379.129 46.177,379.788 44.864 C 380.746 42.954,383.790 40.778,385.856 40.526 L 386.750 40.417 386.795 37.042 L 386.840 33.667 385.628 33.688 C 384.962 33.700,383.929 33.815,383.333 33.943 M277.500 34.028 C 273.898 34.538,269.437 37.950,267.948 41.334 C 264.782 48.529,268.114 56.290,275.621 59.209 C 277.059 59.768,282.163 59.768,283.943 59.208 C 285.433 58.740,285.440 58.740,285.575 59.275 L 285.686 59.717 287.953 59.609 C 289.199 59.549,290.695 59.500,291.276 59.500 L 292.333 59.500 292.333 46.750 L 292.333 34.000 289.000 34.000 C 285.850 34.000,285.667 34.017,285.667 34.313 C 285.667 34.986,285.277 35.044,283.794 34.592 C 281.495 33.891,279.640 33.725,277.500 34.028 M58.629 34.170 C 55.450 34.970,51.373 38.273,50.050 41.122 C 45.158 51.657,55.135 62.762,66.239 59.141 C 66.980 58.900,67.415 58.828,67.453 58.942 C 67.702 59.689,67.758 59.698,71.132 59.572 L 74.333 59.451 74.333 46.726 L 74.333 34.000 71.013 34.000 L 67.693 34.000 67.583 34.500 C 67.450 35.106,67.421 35.107,65.750 34.557 C 64.287 34.075,59.945 33.840,58.629 34.170 M128.583 34.111 C 126.284 34.733,124.032 35.792,122.738 36.859 C 115.430 42.882,116.986 54.714,125.586 58.519 C 127.590 59.405,132.542 59.973,133.675 59.447 C 133.991 59.300,134.813 58.980,135.500 58.736 C 137.830 57.911,139.833 56.508,139.833 55.703 C 139.833 55.235,136.162 51.380,135.576 51.233 C 135.343 51.175,134.933 51.322,134.417 51.649 C 132.735 52.716,130.764 52.990,128.928 52.413 C 128.053 52.138,125.884 50.561,126.092 50.352 C 126.148 50.296,130.107 50.212,134.889 50.167 L 143.583 50.083 143.684 49.250 C 144.413 43.245,141.052 37.218,135.744 35.008 C 134.066 34.310,129.817 33.777,128.583 34.111 M305.434 34.178 C 302.676 34.860,298.739 37.835,297.287 40.333 C 294.073 45.867,295.802 54.057,300.904 57.470 C 306.049 60.911,313.163 60.266,317.788 55.939 C 319.411 54.422,319.308 53.948,317.028 52.445 C 313.559 50.159,313.770 50.220,312.642 51.172 C 307.585 55.436,300.425 50.143,303.207 44.198 C 304.800 40.795,309.359 39.967,312.544 42.504 C 313.583 43.330,313.704 43.328,314.961 42.458 C 318.695 39.876,318.833 39.762,318.833 39.259 C 318.833 38.165,315.586 35.673,312.713 34.561 C 311.464 34.078,306.826 33.834,305.434 34.178 M354.179 34.173 C 347.002 35.659,342.448 42.482,343.916 49.549 C 345.459 56.972,353.802 61.576,360.833 58.883 C 361.429 58.655,362.139 58.385,362.412 58.282 C 362.684 58.180,363.490 57.656,364.203 57.119 C 366.031 55.741,366.029 55.728,363.421 53.190 C 361.229 51.057,360.839 50.849,360.253 51.497 C 358.566 53.360,352.361 52.663,351.752 50.542 L 351.644 50.167 357.879 50.167 C 361.308 50.167,365.247 50.118,366.633 50.058 L 369.151 49.949 369.254 49.480 C 369.452 48.579,369.013 44.086,368.601 42.797 C 366.733 36.948,360.056 32.956,354.179 34.173 M133.583 41.575 C 134.765 42.151,135.831 43.058,135.599 43.290 C 135.436 43.454,128.027 43.560,126.855 43.415 L 125.961 43.304 126.605 42.638 C 128.376 40.808,131.146 40.386,133.583 41.575 M357.897 41.085 C 359.057 41.387,360.058 41.950,360.803 42.719 L 361.353 43.286 360.718 43.391 C 359.881 43.530,353.122 43.507,352.185 43.363 L 351.454 43.250 352.185 42.577 C 353.797 41.093,355.859 40.555,357.897 41.085 M64.250 41.495 C 69.679 44.155,68.348 51.962,62.340 52.701 C 56.344 53.440,53.310 45.156,58.420 41.998 C 60.188 40.905,62.618 40.695,64.250 41.495 M282.382 41.573 C 286.676 43.748,286.689 50.099,282.404 52.173 C 278.656 53.987,274.647 51.741,273.837 47.375 C 273.047 43.111,278.334 39.521,282.382 41.573 " stroke="none" fill="#000000" fill-rule="evenodd"></path><path id="path1" d="M195.250 13.650 C 194.883 13.820,193.958 14.456,193.194 15.063 L 191.804 16.167 190.475 16.167 C 189.278 16.167,189.019 16.105,187.865 15.542 C 184.842 14.068,182.464 14.980,181.408 18.018 C 181.136 18.799,180.780 19.260,179.781 20.125 L 179.155 20.667 176.950 20.667 C 173.303 20.667,172.150 21.747,171.917 25.380 C 171.735 28.227,170.918 29.844,169.531 30.104 C 168.602 30.278,167.389 30.953,166.986 31.520 C 166.175 32.659,165.721 35.239,166.230 35.820 C 167.923 37.755,167.929 40.003,166.246 42.083 C 164.137 44.690,164.381 46.961,166.993 49.037 C 169.254 50.834,169.506 51.564,168.835 54.364 C 168.028 57.729,169.340 59.567,172.923 60.090 C 174.985 60.391,176.005 61.481,176.501 63.917 C 177.125 66.975,179.233 68.492,181.731 67.681 C 184.493 66.785,185.169 66.971,187.479 69.262 C 190.255 72.015,191.895 72.182,194.448 69.973 C 196.286 68.382,197.577 68.203,199.750 69.239 C 203.031 70.802,204.780 70.150,206.410 66.756 C 207.473 64.541,207.816 64.326,210.546 64.161 C 214.846 63.902,215.395 63.361,215.719 59.061 L 215.901 56.635 216.792 55.745 C 217.291 55.246,217.953 54.767,218.299 54.656 C 218.639 54.547,219.029 54.370,219.167 54.263 C 219.304 54.156,219.636 53.960,219.903 53.826 C 221.748 52.905,222.151 50.280,220.831 47.785 C 219.711 45.668,219.860 44.549,221.541 42.432 C 223.489 39.981,223.459 37.952,221.452 36.286 C 218.477 33.817,217.877 32.387,218.938 30.300 C 220.209 27.799,218.061 25.189,214.236 24.587 C 212.648 24.337,211.832 23.382,211.271 21.118 C 210.390 17.559,208.922 16.552,205.737 17.319 C 202.874 18.009,202.490 17.885,200.167 15.509 C 198.079 13.374,196.848 12.908,195.250 13.650 M196.479 24.670 C 209.557 26.368,216.201 41.745,208.539 52.583 C 207.109 54.606,203.250 58.000,202.379 58.000 C 202.287 58.000,202.033 58.136,201.814 58.301 C 200.346 59.414,194.982 60.400,192.414 60.028 C 191.673 59.921,190.830 59.833,190.543 59.833 C 189.207 59.833,185.290 58.171,183.519 56.853 C 176.820 51.865,174.298 44.196,176.824 36.489 C 178.138 32.481,182.852 27.411,186.550 26.027 C 187.068 25.833,187.626 25.606,187.788 25.522 C 189.363 24.710,193.593 24.295,196.479 24.670 M193.001 28.582 C 192.888 28.718,192.755 29.326,192.707 29.932 C 192.609 31.153,192.319 31.469,190.960 31.841 C 188.887 32.409,187.167 34.741,187.167 36.984 C 187.167 40.043,188.366 41.759,191.600 43.330 C 192.233 43.637,192.862 43.948,193.000 44.021 C 193.137 44.095,193.684 44.357,194.215 44.603 C 195.811 45.345,196.388 46.392,195.998 47.840 C 195.391 50.097,192.094 49.677,191.486 47.265 C 191.207 46.155,190.899 46.000,188.971 46.000 C 186.777 46.000,186.500 46.140,186.500 47.247 C 186.500 49.824,188.010 51.738,190.861 52.774 C 192.492 53.367,192.609 53.488,192.741 54.723 C 192.894 56.148,192.962 56.221,194.216 56.301 C 195.764 56.400,195.929 56.265,196.051 54.811 C 196.167 53.433,196.333 53.205,197.546 52.761 C 199.749 51.954,201.022 50.063,201.135 47.434 C 201.271 44.263,200.173 42.915,195.553 40.577 C 192.019 38.789,191.028 36.690,193.189 35.572 C 194.555 34.865,195.525 35.347,196.230 37.083 L 196.636 38.083 198.860 38.083 L 201.083 38.083 201.134 37.086 C 201.243 34.966,199.933 33.128,197.344 31.767 L 196.215 31.174 196.104 29.974 C 196.042 29.315,195.910 28.675,195.809 28.554 C 195.540 28.230,193.275 28.252,193.001 28.582 " stroke="none" fill="#f40404" fill-rule="evenodd"></path></g></svg>